/* XPM */
static char *e09078f4d55f4615baade6ccf0ab8ebbDNHMmYsDI6f4ZrGO[] = {
/* columns rows colors chars-per-pixel */
"70 70 219 2 ",
"   c #030202",
".  c #0A0704",
"X  c #0B0A07",
"o  c #06060A",
"O  c #0A060A",
"+  c #07080A",
"@  c #0B0A0D",
"#  c #110D0E",
"$  c #180E0E",
"%  c #13110F",
"&  c #070A13",
"*  c #0D0D13",
"=  c #0D0F18",
"-  c #120E12",
";  c #190F11",
":  c #0E1116",
">  c #0F111A",
",  c #151214",
"<  c #1B1415",
"1  c #1E1817",
"2  c #13131A",
"3  c #1B1619",
"4  c #15191D",
"5  c #1D191A",
"6  c #221615",
"7  c #231916",
"8  c #21171A",
"9  c #231B1C",
"0  c #291E1D",
"q  c #301C16",
"w  c #26201E",
"e  c #2B211E",
"r  c #33241E",
"t  c #1B1C24",
"y  c #1B1D25",
"u  c #241E20",
"i  c #2A1F20",
"p  c #1E2125",
"a  c #1F2428",
"s  c #252122",
"d  c #2C2323",
"f  c #2E2926",
"g  c #23252A",
"h  c #2C2729",
"j  c #262A2D",
"k  c #2C2A2A",
"l  c #322625",
"z  c #342926",
"x  c #3A2B25",
"c  c #312628",
"v  c #352B2B",
"b  c #3A2D2B",
"n  c #36312E",
"m  c #3C312D",
"M  c #2B2E32",
"N  c #342E32",
"B  c #392F30",
"V  c #2E3233",
"C  c #343233",
"Z  c #3C3332",
"A  c #3D3937",
"S  c #38383A",
"D  c #43231F",
"F  c #5A2A27",
"G  c #43342E",
"H  c #4A322D",
"J  c #4B392F",
"K  c #423533",
"L  c #4B3731",
"P  c #443935",
"I  c #4B3B34",
"U  c #443B3A",
"Y  c #4A3E3B",
"T  c #563735",
"R  c #503D33",
"E  c #662B28",
"W  c #6B352D",
"Q  c #653D38",
"!  c #773E36",
"~  c #45403E",
"^  c #4C413C",
"/  c #544236",
"(  c #57473A",
")  c #53443C",
"_  c #5A463C",
"`  c #5B4A3D",
"'  c #64483A",
"]  c #604B3D",
"[  c #73443C",
"{  c #784338",
"}  c #7B443C",
"|  c #69503F",
" . c #3D3D43",
".. c #493F40",
"X. c #454142",
"o. c #4C4442",
"O. c #4B4749",
"+. c #524542",
"@. c #554744",
"#. c #544945",
"$. c #5C4B43",
"%. c #544C4A",
"&. c #5C4D4A",
"*. c #5A524A",
"=. c #5D514B",
"-. c #4F4D52",
";. c #585353",
":. c #634D42",
">. c #644F46",
",. c #7C4A42",
"<. c #645145",
"1. c #6D5343",
"2. c #63524B",
"3. c #6A554C",
"4. c #61584C",
"5. c #6B594C",
"6. c #735D4D",
"7. c #785849",
"8. c #7A5D4B",
"9. c #635553",
"0. c #6C5B52",
"q. c #695C58",
"w. c #745D52",
"e. c #7C5C53",
"r. c #715F59",
"t. c #73624E",
"y. c #6B6059",
"u. c #7A6554",
"i. c #77675B",
"p. c #7A655A",
"a. c #7C6A63",
"s. c #824435",
"d. c #834B3E",
"f. c #844C41",
"g. c #8A5847",
"h. c #935B4A",
"j. c #8E5D53",
"k. c #85634C",
"l. c #8D664C",
"z. c #8D684D",
"x. c #90674A",
"c. c #926B4E",
"v. c #876853",
"b. c #846B5B",
"n. c #8B6D5E",
"m. c #946D52",
"M. c #986E54",
"N. c #966E5B",
"B. c #89735D",
"V. c #967154",
"C. c #9A7356",
"Z. c #9C755A",
"A. c #98765C",
"S. c #A06D5F",
"D. c #A37C5D",
"F. c #896E60",
"G. c #9C6B60",
"H. c #8B7363",
"J. c #887466",
"K. c #967667",
"L. c #9A7461",
"P. c #9E7D62",
"I. c #937B6C",
"U. c #897C78",
"Y. c #947E74",
"T. c #A37965",
"R. c #9A836C",
"E. c #9C8674",
"W. c #AA8465",
"Q. c #A58568",
"!. c #A4836C",
"~. c #AB8569",
"^. c #AD8A6C",
"/. c #B08C6D",
"(. c #AA8571",
"). c #A68A75",
"_. c #B28C73",
"`. c #B48D79",
"'. c #AC9176",
"]. c #A6907F",
"[. c #AD927B",
"{. c #B49274",
"}. c #B69678",
"|. c #B8967A",
" X c #BD9B7C",
".X c #90C846",
"XX c #AB9687",
"oX c #BC9580",
"OX c #BC9B82",
"+X c #BCA389",
"@X c #B7A99C",
"#X c #B8ADA4",
"$X c #B3B1AA",
"%X c #BAB3A8",
"&X c #C19D84",
"*X c #C2A384",
"=X c #C3A589",
"-X c #C7AA93",
";X c #C4B7AA",
":X c #C2BEB5",
">X c #C7C1B7",
",X c #CBC5BC",
"<X c #CECABE",
"1X c #D2CBBF",
"2X c #CECBC3",
"3X c #D3CDC5",
"4X c #D5CCC7",
"5X c #D6D2C7",
"6X c #D6D3CB",
"7X c #DBD5CD",
"8X c #DDDCD3",
"9X c #E1DAD5",
"0X c #E2DAD4",
"qX c #DDE0D7",
"wX c #E4E5DD",
"eX c #E8E5D9",
"rX c #EBECE3",
"tX c #EFF0E8",
"yX c #F0F2E9",
/* pixels */
".X.X.X.X.X.X.X.X.X.X.X.X.X.X.X.X.X.X.X.X.X.X.X.X.X.X.X  X , d d 9 1 , < < K +.3 P # .X.X.X.X.X.X.X.X.X.X.X.X.X.X.X.X.X.X.X.X.X.X.X.X.X.X.X.X",
".X.X.X.X.X.X.X.X.X.X.X.X.X.X.X.X.X.X.X.X.X.X.X  , f U Z o.&.+.Y +.&.>.&.&.3.0.&.0.&.Z   .X.X.X.X.X.X.X.X.X.X.X.X.X.X.X.X.X.X.X.X.X.X.X.X.X.X",
".X.X.X.X.X.X.X.X.X.X.X.X.X.X.X.X.X.X.X.X.X.X# y.3.) b b Y K b Y x Y K K ^ &.+.&.+...I 5.5.z   .X.X.X.X.X.X.X.X.X.X.X.X.X.X.X.X.X.X.X.X.X.X.X",
".X.X.X.X.X.X.X.X.X.X.X.X.X.X.X.X.X.X.X.XX s i.2.I m m K K v v b K o.+.Z K v b P K 9 v P ) w.+.w   .X.X.X.X.X.X.X.X.X.X.X.X.X.X.X.X.X.X.X.X.X",
".X.X.X.X.X.X.X.X.X.X.X.X.X.X.X.X.X.X.X  o.2._ P i c v b b d s d P z z v b 9 d 9 P U c K Y &.L ) G .X.X.X.X.X.X.X.X.X.X.X.X.X.X.X.X.X.X.X.X.X",
".X.X.X.X.X.X.X.X.X.X.X.X.X.X.X.X.X.XX Z ) ) K x i d z c v i c v Z b v d 0 i c c f v Z Z P I +.K ] < . .X.X.X.X.X.X.X.X.X.X.X.X.X.X.X.X.X.X.X",
".X.X.X.X.X.X.X.X.X.X.X.X.X.X.X.X.XX Y K Y b G v z x 0 b v Z s b d K i s 0 9 0 9 < < 8 v I b l x x G P   .X.X.X.X.X.X.X.X.X.X.X.X.X.X.X.X.X.X",
".X.X.X.X.X.X.X.X.X.X.X.X.X.X.X.X  ) 3.+.6 c I v G d 9 d K 0 c i z z < u < 0 v # 3 Z d v Y 0 9 m v x P J . .X.X.X.X.X.X.X.X.X.X.X.X.X.X.X.X.X",
".X.X.X.X.X.X.X.X.X.X.X.X.X.X.X.X1 ` 3.b s z I z x s 9 < l 0 c 9 0 z < 3 8 v d 3 3 s 5 n Y d z P e 6 d G G . .X.X.X.X.X.X.X.X.X.X.X.X.X.X.X.X",
".X.X.X.X.X.X.X.X.X.X.X.X.X.X.X.Xm <.L P c z ^ P K 9 3 v n Z v c Z x 9 < 9 b Z v 0 9 3 d m b x 0 0 s 9 z x / . .X.X.X.X.X.X.X.X.X.X.X.X.X.X.X",
".X.X.X.X.X.X.X.X.X.X.X.X.X.X.X. K &.G v s Z ) b Y 0 9 d P v d d b z < 3 c c c v 9 u < f z r &.f $ d 9 x G / 2.@ .X.X.X.X.X.X.X.X.X.X.X.X.X.X",
".X.X.X.X.X.X.X.X.X.X.X.X.X.X.XX G G m +.9 c +.Z 7 s s 1 Y Y v 0 P m < 9 d c s 9 9 9 - 3 b b v < $ s 6 e G ) 1.I .X.X.X.X.X.X.X.X.X.X.X.X.X.X",
".X.X.X.X.X.X.X.X.X.X.X.X.X.X  XXI Y +.) B f Y z d v v < 0 m d v K v < c b b v 0 d d * 9 K G b < , i 9 I &.q R 5.r .X.X.X.X.X.X.X.X.X.X.X.X.X",
".X.X.X.X.X.X.X.X.X.X.X.X.X.Xe 0.K c 2.I ) 9 ^ ^ n s Z 9 b P e l d c U 0 v Z f c f N @ s z G c < , d d x I R I r :.e .X.X.X.X.X.X.X.X.X.X.X.X",
".X.X.X.X.X.X.X.X.X.X.X.X.X  ^ $.^ v +.P U e P U 9.9 v d P x l l 6 0 b c f b c v v n , 3 c K Y < d c Z 6 I L R G I I   .X.X.X.X.X.X.X.X.X.X.X",
".X.X.X.X.X.X.X.X.X.X.X.X.X% $.2.Y Z @.Y v 0 m Y Z P v Z P z m 0 c l e 0 d v z e n K - < z b 0 9 l f f < K ] H I r ) w .X.X.X.X.X.X.X.X.X.X.X",
".X.X.X.X.X.X.X.X.X.X.X.X.Xd 3.>.K Z +.m v v ^ K U f #.v ^ n z z d b K s 9 9 e Z b Z , 3 +.m z 9 c 6 ; < x H.G x K 2.2.  .X.X.X.X.X.X.X.X.X.X",
".X.X.X.X.X.X.X.X.X.X.X.X.Xi.$.=.K Y ) P z Z Z U z v v l m P m c v P n f P 0 b z v z - v K K b f l z , 0 ) 8.b x x L R z .X.X.X.X.X.X.X.X.X.X",
".X.X.X.X.X.X.X.X.X.X.X.X.X0.P I U ^ #.l 0 U %.o.9 U f K z v z d z Z P s c c U U d 0 , n ) l 0 e l m < Z ) I.G I a.$.) &.@ .X.X.X.X.X.X.X.X.X",
".X.X.X.X.X.X.X.X.X.X.X.X.XP Z Y @.^ ) 0 v +.K #.w B ~ +.n Z P v e z f Z Z U K P b 9 3 e ) x v c x U $ d _ <.G G ) <.2.) # .X.X.X.X.X.X.X.X.X",
".X.X.X.X.X.X.X.X.X.X.X.X.Xv %.^ @.^ P c ^ U ^ +.s v v ) d d c d b m 0 d z 0 c m v s 3 9 ) l P b ^ z < ; >.p.I Y 0.r.G i.% .X.X.X.X.X.X.X.X.X",
".X.X.X.X.X.X.X.X.X.X.X.X.X^ ^ Z y.#.+.P U P #.%.v s f +.b d s b K b 0 9 v < d z b 3 u , / G b I I < 3 6 5.3.2.&.0.) 6 G % .X.X.X.X.X.X.X.X.X",
".X.X.X.X.X.X.X.X.X.X.X.XX 9.%.o.+.9.+.o.v Y o.^ b , h m n b 3 e v Z v v b 0 P e Y 3 u 9 / K x m ) 9 3 d >.$.$.9.$.) b $.b .X.X.X.X.X.X.X.X.X",
".X.X.X.X.X.X.X.X.X.X.X.XX o.U #.%.%.+.o.Z Z m P v 5 N z K K 9 d m d 6 v d v l 6 7 - 9 7 I b v b _ 8 0 z $.l &.q.r.I G &.$..X.X.X.X.X.X.X.X.X",
".X.X.X.X.X.X.X.X.X.X.X.X  %.o.O.%.o.#.*.Z v #.Z v , u e K ^ < f K z 9 v Z 0 0 9 0 < 9 m b K c b I 0 v 0 2.Y 0.&.%.&.P &.+..X.X.X.X.X.X.X.X.X",
".X.X.X.X.X.X.X.X.X.X.X.X.XO.U ;.%.+.#.%.%.k Z U #.- , d K ^ , v U U < v U s < d d , s K < m $ Y q.9 b z ) z Z q.P G &.2.K .X.X.X.X.X.X.X.X.X",
".X.X.X.X.X.X.X.X.X.X.X.X.Xn o...;.%.Z U P U Z Z Z - , Z s P 9 s Z P O v v 9 s z z , 0 P 9 b 9 K d v v m P Y Y +.b &.9.9., .X.X.X.X.X.X.X.X.X",
".X.X.X.X.X.X.X.X.X.X.X.X.X, U o.%.O.U v %.Z U P v 2 @ f s v 3 0 U b O Z b e < Y b , s U C d < ^ 9 P i l z c &.U +.%.U.~   .X.X.X.X.X.X.X.X.X",
".X.X.X.X.X.X.X.X.X.X.X.X.X, N O.o.%.%.O.C v d ^ P u @ s v z 3 < P c - n 9 0 3 Y c - 9 v 3 w 3 P G v d 0 Z Y U c U 9.X..X.X.X.X.X.X.X.X.X.X.X",
".X.X.X.X.X.X.X.X.X.X.X.X.X  3 o.U O.U Z v v v v Z < - s d Z - 3 P 9 9 b 3 7 9 b d k 3 d @ s 9 z &.c 0 d v f ^ d q.;.  .X.X.X.X.X.X.X.X.X.X.X",
".X.X.X.X.X.X.X.X.X.X.X.X.X.X  X.Z X.%.Z v z v v Z , d 3 9 n @ - U < n 0 < 0 , c z 3 3 7 5 9 , l v v 3 d 5 f K +.O..X.X.X.X.X.X.X.X.X.X.X.X.X",
".X.X.X.X.X.X.X.X.X.X.X.X.X.Xf e.U Z C U C d f s 0 9 @ - 3 v , @ Z 3 d d , s 3 o.v 3 2 9 * 9 - 0 s s v 1 3 i b 7.9 .X.X.X.X.X.X.X.X.X.X.X.X.X",
".X.X.X.X.X.X.X.X.X.X.X.X.X.XF.G.:.+.d u Z f 0 9 9 k , O - s # @ < 0 s 9 < 3 9 # 1 * * 9 , 5 C d d d f * 9 K T [ U..X.X.X.X.X.X.X.X.X.X.X.X.X",
".X.X.X.X.X.X.X.X.X.X.X.X.X.XF.S.[ Q Z h d k v v s s , @ * , 5 * 1 9 3 1 3 < u 3 9 2 * 9 , , u 0 U s u 2 v D W { ]..X.X.X.X.X.X.X.X.X.X.X.X.X",
".X.X.X.X.X.X.X.X.X.X.X.X.X.Xm T.} ! F d k s < Z s v 9 @ @ @ 9 @ < 0 # 1 1 , f , 0 * @ , 5 3 @ < 5 d 3 c x F ! } K..X.X.X.X.X.X.X.X.X.X.X.X.X",
".X.X.X.X.X.X.X.X.X.X.X.X.X.X.XL.g.! W z v g s v b n z 1 , # , X 9 s . # 1 * 9 3 - 2 @ 3 - - * 5 9 8 i i T E ! d.e..X.X.X.X.X.X.X.X.X.X.X.X.X",
".X.X.X.X.X.X.X.X.X.X.X.X.X.X.Xe N.} ! ' Z v s d U P Y f 0 X , 3 < 3 X # 3 @ < 3 , 2 2 , u * @ , 9 i c Y T E } j.9 .X.X.X.X.X.X.X.X.X.X.X.X.X",
".X.X.X.X.X.X.X.X.X.X.X.X.X.X.X@ N.d.} } @.P Z f f v A v s f f , 3 < s @ s @ - 3 * * & - s @ + , 9 0 P @.Q } ,.Y..X.X.X.X.X.X.X.X.X.X.X.X.X.X",
".X.X.X.X.X.X.X.X.X.X.X.X.X.X.X.X:.h.d.f.) U U v k Z Z v d f d s @ - O o - @ - # @ 2 @ @ 9 @ & f l Z &.2.,.{ ,.K .X.X.X.X.X.X.X.X.X.X.X.X.X.X",
".X.X.X.X.X.X.X.X.X.X.X.X.X.X.X.Xn T.g.g.7.^ Z C A ~ f f 1 Z s @ o # @ o O @ @ , @ , o * 0 - 9 Z b Y %.] ,.} g.0 .X.X.X.X.X.X.X.X.X.X.X.X.X.X",
".X.X.X.X.X.X.X.X.X.X.X.X.X.X.X.X  v.h.s.{ ` U Z Z A Z g , # d s * @ 3 X @ + o < @ * o @ f 3 0 0 v =.9.! ! f.e.3 .X.X.X.X.X.X.X.X.X.X.X.X.X.X",
".X.X.X.X.X.X.X.X.X.X.X.X.X.X.X.X.X@ 7.h.d.1.) n n d U , 3 s k d 3 < # - o @ o 3 @ + @ @ c d 9 c m &.w.! f.j., .X.X.X.X.X.X.X.X.X.X.X.X.X.X.X",
".X.X.X.X.X.X.X.X.X.X.X.X.X.X.X.X.X.X.X  . 4.<.^ n 9 d n , , s k 1 v d 1 X o @ , * , @ - d 9.v Z P r.e.[ 3.@ .X.X.X.X.X.X.X.X.X.X.X.X.X.X.X.X",
".X.X.X.X.X.X.X.X.X.X.X.X.X.X.X.X.X.X.X.X.X< R.) P f 3 9 s v k k 3 9 3 f u - - * , 9 3 1 Z +.v B +.p.w .X.X.X.X.X.X.X.X.X.X.X.X.X.X.X.X.X.X.X",
".X.X.X.X.X.X.X.X.X.X.X.X.X.X.X.X.X.X.X.X.X  ).5.#.Z f n 1 # v w C k v 3 # - 2 , , , 9 U U Y Z Y J.a..X.X.X.X.X.X.X.X.X.X.X.X.X.X.X.X.X.X.X.X",
".X.X.X.X.X.X.X.X.X.X.X.X.X.X.X.X.X.X.X.X.X.X-XI.0.P P n s , 3 1 # 5 5 , @ @ - < 3 9 f f Z Y P 0.E.v .X.X.X.X.X.X.X.X.X.X.X.X.X.X.X.X.X.X.X.X",
".X.X.X.X.X.X.X.X.X.X.X.X.X.X.X.X.X.X.X.X.X.X-X[.i.y.*.o.U 0 1 3 - @ @ @ X @ - , 5 f Z b P +.&.J.E..X.X.X.X.X.X.X.X.X.X.X.X.X.X.X.X.X.X.X.X.X",
".X.X.X.X.X.X.X.X.X.X.X.X.X.X.X.X.X.X.X.X.X.XJ.[.E.( 0.=.P n d 3 - X @ @ @ - 3 0 s U K &.K Y 3.K.K .X.X.X.X.X.X.X.X.X.X.X.X.X.X.X.X.X.X.X.X.X",
".X.X.X.X.X.X.X.X.X.X.X.X.X.X.X.X.X.X.X.X.X.Xx =XE.B.t.=.) b l , , # O @ , , s s c o.P &.G $.H.(.9 .X.X.X.X.X.X.X.X.X.X.X.X.X.X.X.X.X.X.X.X.X",
".X.X.X.X.X.X.X.X.X.X.X.X.X.X.X.X.X.X.X.X.X.X. =XR.E.R.t.i.5.m l 0 9 , $ 9 9 d b G +.2.) $.3.H.[.1 .X.X.X.X.X.X.X.X.X.X.X.X.X.X.X.X.X.X.X.X.X",
".X.X.X.X.X.X.X.X.X.X.X.X.X.X.X.X.X.X.X.X.X.X. =X'.B.R.H.u.` ` G x e 0 0 0 x G b I <.5.3.<.w.n.H.@ .X.X.X.X.X.X.X.X.X.X.X.X.X.X.X.X.X.X.X.X.X",
".X.X.X.X.X.X.X.X.X.X.X.X.X.X.X.X.X.X.X.X.X.X. +X|.B.).b.b.u.5.` ` x ) x x G / :.>.b.e.e.1.b.(.w.  .X.X.X.X.X.X.X.X.X.X.X.X.X.X.X.X.X.X.X.X.X",
".X.X.X.X.X.X.X.X.X.X.X.X.X.X.X.X.X.X.X.X.X.X  *XOX).).R.!.B.8.| ] R J R R :.1.1.8.b.n.b.b.K.(.w..X.X.X.X.X.X.X.X.X.X.X.X.X.X.X.X.X.X.X.X.X.X",
".X.X.X.X.X.X.X.X.X.X.X.X.X.X.X.X.X.X.X.X.X.X  *X=X|.[.'.!.P.k.7.1./ ] | ' 7.k.k.k.N.n.n.I.(.`.6..X.X.X.X.X.X.X.X.X.X.X.X.X.X.X.X.X.X.X.X.X.X",
".X.X.X.X.X.X.X.X.X.X.X.X.X.X.X.X.X.X.X.X.X.X  *X=X!.'.Q.~.P.A.z.k.| 8.8.l.k.l.l.z.A.K.b.).(.`.6..X.X.X.X.X.X.X.X.X.X.X.X.X.X.X.X.X.X.X.X.X.X",
".X.X.X.X.X.X.X.X.X.X.X.X.X.X.X.X.X.X.X.X.X.X3  X{.OX X}.~.W.Z.C.V.l.k.z.c.l.l.l.z.m.P.K.!._.`.w..X.X.X.X.X.X.X.X.X.X.X.X.X.X.X.X.X.X.X.X.X.X",
".X.X.X.X.X.X.X.X.X.X.X.X.X.X.X.X.X.X.X.X.X.Xf  X}.{.Q.|.{.W.D.D.Z.m.C.c.x.x.l.c.l.N.L.!.T.`.|.w..X.X.X.X.X.X.X.X.X.X.X.X.X.X.X.X.X.X.X.X.X.X",
".X.X.X.X.X.X.X.X.X.X.X.X.X.X.X.X.X.X.X.X.X.XJ. X X&X|.{./.W.D.D.Z.C.c.c.x.c.l.l.l.N.L.T.(.`.OXw..X.X.X.X.X.X.X.X.X.X.X.X.X.X.X.X.X.X.X.X.X.X",
".X.X.X.X.X.X.X.X.X.X.X.X.X.X.X.X.X.X.X.X.X  }.{.{.^.^.{.~.W.D.D.Z.C.V.m.l.l.l.g.l.z.L.!.(.oX&Xu..X.X.X.X.X.X.X.X.X.X.X.X.X.X.X.X.X.X.X.X.X.X",
".X.X.X.X.X.X.X.X.X.X.X.X.X.X.X.X.X.X.X.X+ C S C j k o.q.2.<.` _ ) / R R J I R I I ) $.3.0.p.-Xp.. .X.X.X.X.X.X.X.X.X.X.X.X.X.X.X.X.X.X.X.X.X",
".X.X.X.X.X.X.X.X.X.X.X.X.X.X.X.X.X.X.X.XS C S V j g p s j j 4 : 2 = : * = : : = * 2 y j j s S U @ .X.X.X.X.X.X.X.X.X.X.X.X.X.X.X.X.X.X.X.X.X",
".X.X.X.X.X.X.X.X.X.X.X.X.X.X.X.X.X.X.X3 S V M j M s p , p a y t 2 = = > > = * > = = t t 4 C M S X.X .X.X.X.X.X.X.X.X.X.X.X.X.X.X.X.X.X.X.X.X",
".X.X.X.X.X.X.X.X.X.X.X.X.X.X.X.X.X.X- V V V M M j j p p 4 p y 4 2 > > = & = > > > > 2 y y j g N O.k .X.X.X.X.X.X.X.X.X.X.X.X.X.X.X.X.X.X.X.X",
".X.X.X.X.X.X.X.X.X.X.X.X.X.X@ k C m '.}.).<.%.~ A S g a t t g 4 > > = 2 > > > * > > 2 y j g  .X.-.-.s .X.X.X.X.X.X.X.X.X.X.X.X.X.X.X.X.X.X.X",
".X.X.X.X.X.X.X.X.X.X.X.X) i.$XrXtX<X@X|. X X|.{.^.P.k.p.t.6.t.5.` ` I ) I / / ) ) ) _ ] >.5.w.p.J.Y.I =.=..X.X.X.X.X.X.X.X.X.X.X.X.X.X.X.X.X",
".X.X.X.X.X.X.X.X.X.X.X.XeXrXrX8XrXwXyX0X'.OX{.|.^././._.^.^.~.W.P.V.m.m.c.m.m.m.V.V.m.m.m.m.Z.T.~._.`.XXY.E.I..X.X.X.X.X.X.X.X.X.X.X.X.X.X.X",
".X.X.X.X.X.X.X.X.X.X.X8XrXrXyX7X6XwXwXwXrXeX;X+X(.^.^.~.^._.~.W.D.Z.Z.M.V.V.V.M.C.M.m.M.M.m.M.Z.T.T.`.OX@X;X@XXX.X.X.X.X.X.X.X.X.X.X.X.X.X.X",
".X.X.X.X.X.X.X.X.X.X.XtX8XrXwXwXqX6X3X6X8XeXrX8X3X<X#X[.{._.~.Q.Z.Z.Z.Z.C.C.V.c.C.C.C.C.C.m.C.Z.T.].5X;X,X0X4X#X@X.X.X.X.X.X.X.X.X.X.X.X.X.X",
".X.X.X.X.X.X.X.X.X.X.XwXwXrXrXrXwXrXrXwX6X3X8XwX6X3X7X<X7X,X5X:X3X,X5X2X:X1X%XXX].].XXXX].@X3X<X>X%X:X6X7X0X0X7X#X@X@X.X.X.X.X.X.X.X.X.X.X.X",
".X.X.X.X.X.X.X.X.X.XwXwXwXwXwXtXwX8X8X6X6X6XwX,X0X>X6X>X7X%X2X3X3X,X%X4X%X<X7X$X>X>X7X<X#X%X>X<X3X3X5X7X0X0X2X4X4X7X>X5X;X.X.X.X.X.X.X.X.X.X"
};
