/* XPM */
static char *_28ab62ee867424dd92f0ad152ffaccegNkPOdzPh4SzQ7zj[] = {
/* columns rows colors chars-per-pixel */
"70 70 215 2 ",
"   c #A03B0A",
".  c #B41536",
"X  c #9A4425",
"o  c #9C5020",
"O  c #975335",
"+  c #A0512A",
"@  c #A15230",
"#  c #AE663D",
"$  c #B1673F",
"%  c #AA2249",
"&  c #C4184A",
"*  c #AC6546",
"=  c #AD6D4B",
"-  c #B46A43",
";  c #B46845",
":  c #BC6C44",
">  c #B36D49",
",  c #AF714B",
"<  c #BF7144",
"1  c #B5734E",
"2  c #BD754D",
"3  c #AF6E52",
"4  c #AF7551",
"5  c #B37453",
"6  c #BB7656",
"7  c #BD7A54",
"8  c #B37A5B",
"9  c #BA7D5B",
"0  c #AF7367",
"q  c #B47D61",
"w  c #B97C66",
"e  c #C16E42",
"r  c #C17244",
"t  c #C4754C",
"y  c #C6784D",
"u  c #C17652",
"i  c #C47B53",
"p  c #CE7E56",
"a  c #C27D5A",
"s  c #C77F64",
"d  c #E9B40E",
"f  c #BD805E",
"g  c #BD8668",
"h  c #BC8876",
"j  c #BC927B",
"k  c #A7AC79",
"l  c #C4835F",
"z  c #CA825B",
"x  c #D38757",
"c  c #DAAE54",
"v  c #C48462",
"b  c #CB8663",
"n  c #CD8B64",
"m  c #C6876B",
"M  c #C4896B",
"N  c #CB8D6D",
"B  c #D38B65",
"V  c #D48965",
"C  c #D28C6A",
"Z  c #CB916D",
"A  c #D2936C",
"S  c #DB936D",
"D  c #D89A68",
"F  c #C48D72",
"G  c #C78976",
"H  c #D58D73",
"J  c #C59372",
"K  c #CD9574",
"L  c #CF9875",
"P  c #C4957A",
"I  c #CA977A",
"U  c #CB9A7C",
"Y  c #D39573",
"T  c #D89470",
"R  c #D39975",
"E  c #DC9C76",
"W  c #D3957A",
"Q  c #D9927B",
"!  c #D39C7C",
"~  c #DC9B7A",
"^  c #E29B77",
"/  c #D8A17E",
"(  c #E4BB67",
")  c #E3A17E",
"_  c #90C846",
"`  c #97CB52",
"'  c #9ECF5E",
"]  c #A5D26A",
"[  c #ACD676",
"{  c #DFC265",
"}  c #E2C07F",
"|  c #5F77A6",
" . c #5F76AB",
".. c #6475A5",
"X. c #CD8982",
"o. c #C59886",
"O. c #CC9D83",
"+. c #C39C8B",
"@. c #CB9E89",
"#. c #D49F82",
"$. c #D49C8A",
"%. c #D69E99",
"&. c #D89A98",
"*. c #D99D9B",
"=. c #CFA286",
"-. c #C9A68D",
";. c #CCA48C",
":. c #D3A384",
">. c #DBA384",
",. c #D4A48A",
"<. c #D4A98D",
"1. c #DAA98A",
"2. c #D9BB81",
"3. c #CEA591",
"4. c #CEAA94",
"5. c #CBAB9C",
"6. c #D4AB93",
"7. c #DAAC94",
"8. c #D8AA98",
"9. c #CEB19E",
"0. c #D6B194",
"q. c #DBB195",
"w. c #D6B39C",
"e. c #DBB39B",
"r. c #DCB99E",
"t. c #E3A382",
"y. c #E4A88B",
"u. c #E8B68C",
"i. c #E3A995",
"p. c #EAB597",
"a. c #E4B59C",
"s. c #E3B99D",
"d. c #F2BB9F",
"f. c #D99BA0",
"g. c #CDAAA3",
"h. c #D9A3A4",
"j. c #DCA9A6",
"k. c #CDB7A8",
"l. c #D2B3A2",
"z. c #DAB5A3",
"x. c #DCBAA4",
"c. c #D7B7AA",
"v. c #DAB4AA",
"b. c #D5BCAB",
"n. c #DBBDAB",
"m. c #CFBBB0",
"M. c #D3BDB3",
"N. c #DBBEB2",
"B. c #DABDB9",
"V. c #E4ADA5",
"C. c #E3BAA7",
"Z. c #E2BCA4",
"A. c #EBBCA3",
"S. c #F3BCA0",
"D. c #E4BEB4",
"F. c #B3DA82",
"G. c #E9C283",
"H. c #E4D085",
"J. c #EACC9B",
"K. c #DDC3AF",
"L. c #D6C2B5",
"P. c #DDC2B4",
"I. c #DBC8B3",
"U. c #D6C3BC",
"Y. c #DCC4BA",
"T. c #DDC9BD",
"R. c #EBC1A4",
"E. c #E3C2AD",
"W. c #E3C4B4",
"Q. c #EAC6B2",
"!. c #E4C9B4",
"~. c #E1C5BC",
"^. c #E4CABA",
"/. c #EACCBC",
"(. c #F3C8B9",
"). c #E8D3BA",
"_. c #F1D1BF",
"`. c #CCC5CA",
"'. c #DFC6C3",
"]. c #D6C9C6",
"[. c #DECBC4",
"{. c #D6CCCD",
"}. c #DBCDCC",
"|. c #DDD0CB",
" X c #C5C5D2",
".X c #D4CBD1",
"XX c #DDCDD0",
"oX c #DFD4D1",
"OX c #E1C7C4",
"+X c #EAC3C3",
"@X c #E1C9C6",
"#X c #E4CCC7",
"$X c #E4D1C5",
"%X c #ECD3C4",
"&X c #E8D8C7",
"*X c #E3D2CA",
"=X c #E9D5CA",
"-X c #E7D8CC",
";X c #EBD9CE",
":X c #F3D3C4",
">X c #F0D8C7",
",X c #F2DACB",
"<X c #E3D6D2",
"1X c #E6DAD4",
"2X c #E7DBD5",
"3X c #EADDD7",
"4X c #E9DDD9",
"5X c #EBDCD9",
"6X c #F1DAD6",
"7X c #EAE2D4",
"8X c #EAE4D8",
"9X c #E6E5E1",
"0X c #EAE7E3",
"qX c #ECECEC",
"wX c #EFECF0",
/* pixels */
"_ _ _ _ _ _ _ _ ' _ _ _ ' _ _ _ _ _ ` ' _ _ _ _ ' _ ` ' _ _ _ _ _ _ _ _ _ _ _ _ _ _ _ ` ' ` _ _ _ _ _ _ _ _ _ _ _ _ _ _ _ _ ` ' ` ' _ _ _ _ ",
"_ _ _ _ _ _ _ ] ` _ _ ` _ _ _ _ _ _ _ _ ` ` _ _ ] ` _ _ _ _ _ _ _ _ _ _ _ _ _ _ ` ' ` _ _ _ _ _ _ _ _ _ ' ` ` ' ` ` _ _ _ _ _ _ _ _ ` ` _ _ ",
"_ _ _ _ _ _ _ ' _ _ _ ` _ _ _ _ _ _ _ _ _ _ ' ' ` _ _ _ _ _ _ _ _ _ ` ' ` ` ' ` _ _ _ _ _ _ _ _ _ _ _ ` _ _ _ _ _ _ ` _ _ _ _ _ _ _ _ _ ` ` ",
"_ _ _ _ _ _ _ ` _ _ ` _ _ _ _ _ _ _ _ _ ` ' _ ' ] ` ` ` ` ' ` ' ` ` _ _ _ _ _ _ _ _ _ _ _ _ _ _ _ _ ` _ _ _ _ _ _ _ _ ` _ _ _ _ _ _ _ _ _ _ ",
"_ _ _ _ _ _ ` _ _ ' _ _ _ _ _ _ _ _ ` ' _ _ _ ' ` _ _ _ _ F.` ` ' ` ` ' ` ` _ _ _ _ _ _ _ _ _ _ _ ` _ _ _ _ _ _ _ _ _ _ ` _ _ _ _ _ _ _ _ _ ",
"_ _ _ _ ` ` _ _ ` _ _ _ _ _ _ ` ' ` _ _ _ _ _ ` _ ` _ _ _ ` _ _ _ _ _ _ _ _ ` ` ' ` ` ` ` ' ` ` ' _ _ _ _ _ _ _ _ _ _ _ ` _ _ _ _ _ _ _ _ _ ",
"_ _ _ ' _ _ _ ' _ _ _ _ _ ` ' _ _ _ _ _ _ _ _ ' _ ' _ _ _ ' _ _ _ _ _ _ _ _ _ _ _ _ _ _ _ _ _ _ ' ` ' ` ` ` ' ` ` ` ` ' ` ' ` ' ` ` ` ` ` ` ",
"_ _ ` _ ` ' ` _ _ _ ` ' ` _ _ _ _ _ _ _ _ ' ` _ _ ` _ _ _ ` _ _ _ _ _ _ _ _ _ _ _ _ _ _ _ _ _ ' _ _ _ _ _ _ _ ` ` ' ` ` ` ` ' [ ` ` ` ' ` ` ",
"_ ` ] ' ' ` ` ` ' ` _ _ _ _ _ _ _ _ _ _ ` _ _ _ _ _ ' _ _ _ ` ' _ _ _ _ _ _ _ _ _ _ _ _ _ ` ` ] ` ` ` ` ` ' ` _ _ _ _ _ _ _ _ _ ` ' ` ` ' ` ",
"' ] _ _ _ _ _ _ _ _ _ _ _ _ _ _ _ _ _ _ ' F._ _ _ _ ` _ _ _ _ _ ` ' ` ` ` ' ` ` ` ` ' ` ` _ _ ' _ _ _ _ _ _ _ _ _ _ _ _ _ _ _ _ _ _ _ _ _ _ ",
"' ` _ _ _ _ _ _ _ _ _ _ ' ` ` ' ` ` ' ` _ _ ' ` _ _ _ ' _ _ _ _ _ _ _ _ _ _ _ _ _ _ _ _ _ _ ] _ _ _ _ _ _ _ _ _ _ _ _ _ _ _ _ _ _ _ _ _ _ _ ",
"_ ' ' ' ' ` ' ` ' ` ' ` _ _ _ _ _ _ _ _ _ _ _ _ ` ' ` ` ] ' ' ' ' ` ` _ _ _ _ _ _ _ _ _ _ _ _ _ _ _ _ _ _ _ _ _ _ _ _ _ _ _ _ _ _ _ _ _ _ _ ",
"_ _ _ _ _ _ _ _ _ _ _ _ _ _ _ _ _ _ _ _ _ _ _ _ _ _ _ _ _ _ _ _ ` ' ` ' ] ] ` ` ` ` ' ` ` ' ] ' ` ' ` ` ' ` ` ` ` ' ` ` ' ` ' ` ` ' ` ` ' ` ",
"_ _ _ _ _ _ _ _ _ _ _ _ _ _ _ _ _ _ _ _ _ _ _ _ _ _ _ _ _ _ _ _ _ _ _ _ _ _ ` ' ` ` ` ' ` _ _ _ _ _ _ _ _ _ _ _ _ _ _ _ _ _ _ _ _ _ _ _ _ _ ",
"_ _ _ _ _ _ _ _ _ _ _ _ _ _ _ _ _ _ _ _ _ _ _ _ _ _ _ _ _ _ _ _ _ _ _ _ _ _ _ _ _ _ _ _ _ _ _ _ _ _ _ _ _ _ _ _ _ _ _ _ _ _ _ _ _ _ _ _ _ _ ",
"_ _ _ _ _ _ _ _ _ _ _ _ _ _ _ _ _ _ _ _ _ _ _ _ _ _ _ _ _ _ _ _ _ _ _ _ _ _ _ _ _ _ _ _ _ _ _ _ _ _ _ _ _ _ _ _ _ _ _ _ _ _ _ _ _ _ _ _ _ _ ",
"% % % % % % % % % % % % % % % % % % % % % % % % % % % % % % % % % % % % % % % % % % % % % % % % % % % % % % % % % % % % % % % % % % % & & & ",
"& 3X2X3X4X4X4X3X3X3X3X3X3X3X3X3X4X3X3X-Xn.n.n.n.n.n.N.N.'.}.}.}.}.}.}.}.}.}.}.}.}.}.}.}.OXOXOXOXOXOXOXOX@X@XOXOX@X@X@X@X3X4XT.Y.$XL.;X& & & ",
"& /.0 =Xo.0 ~.4X................`.2X;Xl.;.;.3.8.;.n.3.;.c.g.c.g.B.D.5.B.~.N.m.'.'.'.'.@X+XOXOXOXOXOXOXOXOX@XOX. . @XOX6X3X3XT.P.E.5.R.& & & ",
"& (.%.8.h /.X.4X....k k k k | ..`.&X;X+ * 5 q 7 @ n.X O q O z O o.Q X 8.Q.C.v.'.'.'.'.@X+XOXOX. . . OXOXOX. . . . . . OX3X3XT.%Xh o O.& & & ",
"& 2Xf.V.:X3X&.4X..k k  . .k k ..`.-X@XT.P.P.P.P.n.z.w.w.z.z.z.z.z.z.z.v.n.N.N.T.OXOXOX@X+XOX. . . . OXOXOX. . . . . . OX3X3XY.n.;.! >.& & & ",
"& 2Xf.i.(.3X&.3X.. .k k k k | ..`.3X4X2X$X$X$X$X*X$XW.6.Z.C.#XP.P.Y.Y.*X2X2X<X@XOX@X@X@X/.X.. . . . @X@X. . @X@XOXOX. . OX4XT.=XT.*X%X& & & ",
"& 3X*.+.G $.i.4X................`.3X3X2X$X$X$X[.^.P.+.W.7.W.-XT.~.~.Y.~.2X3X[.~.OX@XOX@X).,.l *.. . @X@X. . @X@XOXOX. . OX4Xb.m.;X-XT.& & & ",
"& 4X#X3XOX/.6X4X X X X X X X X X<X3X3X2X*X*X*X$XP./.z.6.h -.3X$X~.P.Y.Y.;X@X-X~.OX@XOX#X).G.8.h.. . @X@X. . @X@XOX@X. . OX3XW.$XP.Y.=X& & & ",
"& 4X4X3X3X3X3X3X3X3X3X3X3X3X3X3X3X3X3X2X*X*X*X$XN.$X*X*X*X2X%X5.n.P.Y.Y.T.~.@X@XOXOXOX#X).u.j.j.. . $.j.. . @X@XOXOX. . '.4XT.!.b.^.%X& & & ",
"& 4X3X3X3X3X3X3X3X3X3X3X3X3X3X3X3X3X3X2X*X*X*X$X*X$X*X*X*X*XP.$XP.P.Y.T.#X/.9.!.4.+.z.j @.! i.G . . m G . . 3 h G h . . '.'.n.b.$XT.T.& & & ",
"& 3X3X3X3X3X3X3X3X3X3X3X3X3X3X3X3X3X3X2X*X*X*X*X*X*X*X*X*X*X@XP.Y.~.*X*X$Xw.Z.e.P P a.i.q H 6 Q . . H m . . a W G w . . @X@XT.K.P.P.#X& & & ",
"& 3X3X3X3X3X3X3X3X3X3X3X3X3X3X3X3X3X3X2X}.}.|.|.<X<X|.}.}.*X#XY.[.*X|.*XT.;.Z.<.O.I d.S.i.s ~ a . . u b . . S t.H w . . @X@X^.=X*X[.;X& & & ",
"& 3X3X3X3X3X3X3X3X3X3X3X3X3X3X3X3X3X3X2X}.|.}.2X3X3X*X|.|.|.}.[.}.|.|.}.T.e.j O.p.F p.! W H 6 C . . x z V . . . . . . . @XOXM.k.*X;XT.& & & ",
"& 3X3X3X3X3X3X3X3X3X3X3X3X3X3X3X3X3X3X2X}.|.|.|.3X3X|.|.}.|.[.#X|.|.|.|.Y.@.7.P #.M u.9 5 b s a . . r a C . . . . . . A.3X3XY.=X=X=XT.& & & ",
"& 3X3X3X3X3X3X3X3X3X3X3X3X3X3X3X3X3X3X2X}.|.|.}.|.}.*X|.|.[.P.T.}.|.|.}.'.,.g >.5 m t.1 > ; b C z b S z i 1 t z 2 b A ,X3X3XY.L.L.@X;X& & & ",
"& 3X3X3X3X3X3X3X3X3X3X3X3X3X3X3X3X3X3X2X|.|.|.|.|.|.|.|.}.Y.P.Y.}.|.|.}.U.F q N ~ a 6 u ; y.6.Z.A.,.O.a.,.^ # ) n 9 >.>X3X3X@X^.%Xl.K.& & & ",
"& 3X3X3X3X3X3X3X3X3X3X3X3X3X3X3X3X3X3X2X}.|.|.}.}.}.}.}.[.P.P.Y.}.}.|.|.T.p.y.N 1 B a y.6.,.5 R A.R.O.! 1.Z.g S a E v ,X3X3XT.9.q.<.:.& & & ",
"& 3X3X3X3X3X3X3X3X3X3X3X3X3X3X3X3X3X3X2X}.}.|.|.}.}.}.|.T.P.P.Y.}.}.}.|.U.g 8 7 2 V u.s.! T Z E g W >.! ;.w.6.s.^ C N :X3X4X/.A.q.W.<.& & & ",
"& 3X3X3X3X3X3X3X3X3X3X3X3X3X3X3X3X3X3X3X3X3X2X3X|.}.}.}.T.P.P.Y.}.}.}.}.U.8 5 a u N Z.8 u 7 N A t.) Y m >.j w.e.P $ = :X3X3XC.1.q./.L & & & ",
"& 3X3X3X3X3X3X3X3X3X3X3X. . . . . . . . . 3X3X3X<X}.}.}.Y.P.P.Y.}.}.}.XXU.M 3 b S =.! 7 l v x a v N ,.s.U N ,.z.E.t.u :X3X8XE.p.q.^.1.& & & ",
"& 3X3X3X3X3X3X3X3X3X3X. . . . . . . . . . . 3X2X*X}.}.}.Y.P.P.Y.}.}.}.}.U.W v 2 9 U E T ~ 2 6 ,.6.6.>.J ;.,.M !.x.6.> _.3X4X/.U q.=.Q.& & & ",
"& 3X3X3X3X3X3X3X3X3X3X. . . 3X3X3X3X3X2X. . *X}.}.}.}.}.Y.P.P.Y.}.}.}.}.U.M a p a.p.b v a - Z.%Xm.L.P./.s.q./ =.5.Z.t.:X3X3XY.z.q.U U & & & ",
"& 3X3X3X3X3X3X3X3X3X3X. . 3X3X3X3X3X3X2X}.}.3X}.}.}.}.}.Y.P.P.Y.}.}.}.}.M.g Y ; C.f 5 a # J %XL.7X2XM.P.;.e.P L 4.-.m /.3X3XT.M.;X^.Y.& & & ",
"& 3X3X3X3X3X3X3X3X3X3X. . 3X3X3X3X3X3X2X}.}.}.}.}.}.}.}.Y.P.P.Y.}.}.}.}.M.W = a z./ A C Y :.,Xm.U.-X[.#X;.;.0./ !.%XM /.3X3XT.P.T.;X=X& & & ",
"& 3X3X3X3X3X3X3X3X3X3X. . . . . . . . 2X}.}.}.}.}.}.}.}.Y.P.P.Y.}.}.}.}.U.,.9 E <.W i a v = ).Y.*X).&XL.U 7 5 n N =.>.2X3X3X@X=X;X*X[.& & & ",
"& 3X3X. 3X. . . . . 3X. . . . . . . . 2X{.{.{.{.<XoX{.{.Y.P.P.Y.}.}.}.}.}.q.<.x.n.B : ; t q.x.P.,XJ.).L.U 6.1 T B J W.2X4X2XY.L.[.*X*X& & & ",
"& 3X. . 3X. 3X3X3X. 3X. . 3X3X3X3X3X3X2X{.}.{.4X3X4X<X}.Y.P.P.Y.{.}.}.}.}.6.M s.o.t N u e r.4.!.} ( c J.,.s.>.<.O.4 !.;.w.E.9.%X$X$X@X& & & ",
"& . 3X. 3X. 3X3X3X. 3X. . 3X3X3X3X3X3X2X}.}.}.}.3X3X}.}.Y.P.P.Y.{.}.}.}.}.6.K e.z.t L i r x.4./.2.d d 0Xe.r.:.;.@.1 n.L <.x.K.n.b.P.%X& & & ",
"& 3X3X. 3X. 4X3X3X. 3X. . . . . . . . 2X}.}.}.}.}.].oX}.P.P.P.Y.{.{.}.}.}.,.R <.r.y R i < r.4.n.{ 8XH.8XT.w.#.;.@., x.R <.n.z.^.@XT.T.& & & ",
"& 3X3X. 3X. 3X3X3X. 3X. . . . . . . . 2X{.}.}.].{.{.}.].Y.K.z.Y.{.{.{.{.}.:.L I 0.y R i < <.3.n.8XqXwXqX7Xe.! @.@.> z.R <.x.n.E./.K.N.& & & ",
"& 3X3X. 3X. 3X3X4X. 3X. . 3X3X3X3X3X4X2X{.{.{.{.{.{.{.{.M.x.w.M.{.{.{.{.].#.N :.6.y L i r 0.;.n.9XqXqXqX7Xw.#.@.@.> 6.R <.x.l.k.#X=XT.& & & ",
"& V.3X. 3X. =X3X4X. 3X. . 3X3X3X3X3X3X3X{.{.{.{.{.{.{..Xb.<.<.x.{.{.{.{.].! N ! :.y R i e :.=.n.9XqXqXqX7Xq./ @.O.- ,.W <.x.l.Y.$X*X$X& & & ",
"& W.3X. 3X. . . . . 3X. . . 3X3X3X3X3X3X. . .X{.{.{.{.{.P.6.6.P..X{.{.].I.T b ! 1.t N i : q.<.x.9XqXqXqX7XU Z h F - U R <.n.x.b.T.T.3X& & & ",
"& D.3X3X3X3X3X3X3X3X3X3X. . . . . . . . . . .X{.{.{.{.{.N.n.N.b.{.{.{.K.G.D 7 R K S S T : q.-.x.9XqXqXqX7XU A T A T ! R <.x.n.Y.f 4 0.& & & ",
"& W.3X3X3X3X3X3X3X3X3X3X3X. . . . . . . . .X.X.X.X.X.X.XY.P.P.Y..X.X.X.XG.A u A K q.^.^.%Xv -.3.3.4.4.4.3.0.!.^.E.a.! R <.x.b.%XF   ,.& & & ",
"& D.3X3X3X3X3X3X3X3X3X4X3X3X3X3X3X3X3X3X{..X.X.X.X.X.X.XP.P.P.Y..X.X.X].K.I l Z K U 6.6.q.W v.v.v.v.v.v.C.g 6.7.O.>.R U 6.b.b.@XE.e.P & & & ",
"& 4X3X3X3X3X3X3X3X4X4X3X3X3X4X2X4X3X3X-Xn.n.n.N.P.N.N.P.].{.{.{.{..X.X.X.X.X.X.X{.{..X.X'.%.%.%.%.%.%.%.%.%.%.%.%.%.%.3X3X4XL.Y.T.-X;X& & & ",
"& % % % % % % % % % % % % % % % % % % % % % % % % % % % % % % % % % % % % % % % % % % % % % % % % % % % % % % % % % % % % % % % % % % % % % ",
"_ _ _ _ _ _ _ _ _ _ _ _ _ _ _ _ _ _ _ _ _ _ _ _ _ _ _ _ _ _ _ _ _ _ _ _ _ _ _ _ _ _ _ _ _ _ _ _ _ _ _ _ _ _ _ _ _ _ _ ` ' ` ` ' ` ' ` _ _ _ ",
"_ _ _ _ _ _ _ _ _ _ _ _ _ _ _ _ _ _ _ _ _ _ _ _ _ _ _ _ _ _ _ _ _ _ _ _ _ _ _ _ _ _ _ _ _ _ _ _ _ _ _ _ _ _ _ _ ` ` ' _ _ _ _ _ _ _ _ ` ' ` ",
"_ _ _ _ _ _ _ _ _ _ _ _ _ _ _ _ _ _ _ _ _ _ _ _ _ _ _ _ _ _ _ _ _ _ _ _ _ _ _ _ _ _ _ _ _ _ _ _ _ _ _ _ _ ` ' ` _ _ _ _ _ _ _ _ _ _ _ _ _ _ ",
"_ _ _ _ _ _ _ _ _ _ _ _ _ _ _ _ _ _ _ _ _ _ _ _ _ _ _ _ _ _ _ _ _ _ _ _ _ _ _ _ _ _ ` ' ` ` ' ` _ _ ` ' ` _ _ _ _ _ _ _ _ _ _ _ _ _ _ _ _ _ ",
"_ _ _ _ _ _ _ _ _ _ _ _ _ _ _ _ _ ` ' ` ` ` ' ` ' ` ` ' ` ` ` ' ` ` ' ` ` ' ` ` ' ` _ _ _ _ _ _ ` [ ` ' _ _ _ _ _ _ _ _ _ _ ` ` ' ` ` ` ' ` ",
"_ _ _ _ _ _ _ _ _ _ _ _ ` ' ` ` ' _ _ _ _ _ _ _ _ _ _ _ _ _ _ _ _ _ _ _ _ _ _ _ _ _ _ _ _ _ _ _ ` _ _ _ ` _ _ _ _ ` ` ' ` ` _ _ _ _ _ _ _ _ ",
"_ ` ' ` ` [ ' ] ] ' ] ] ` ` _ _ _ _ _ _ _ _ _ _ _ _ _ _ _ _ _ _ _ _ _ _ _ _ _ _ _ _ _ _ _ _ _ ` ' ' ` ` ` ' ' ` ` _ _ _ _ _ _ _ _ _ _ _ _ _ ",
"` _ ` ' ` ` ' ` ` ' ` ` ` ' ] _ _ _ _ _ _ _ _ _ _ _ _ _ _ _ _ _ _ _ _ _ _ _ _ _ _ _ _ ` ' ` ` ' _ _ _ _ _ _ ] _ _ _ _ _ _ _ _ _ _ _ _ _ _ _ ",
"' ` _ _ _ _ _ _ _ _ _ _ _ _ _ ' ] ` ' ` _ _ _ _ _ _ _ _ _ _ ' ` ` ' ` ` ' ` ` ` ' ` ` _ _ _ ` _ _ _ _ _ _ _ ` _ _ _ _ _ _ _ _ _ _ _ _ _ _ _ ",
"_ _ _ _ _ _ _ _ _ _ _ _ _ _ _ _ _ ` _ _ ' [ ` ` ' ` ` ` ' ` _ _ _ _ _ _ _ _ _ _ _ _ _ _ _ ' _ _ _ _ _ _ _ _ ' _ _ _ _ _ _ _ _ _ _ _ _ _ _ _ ",
"' ` ` ' ` ` ` ' ` ` ` ' ` ` ` ' ` ` [ ` _ _ ` ` _ _ _ _ _ _ _ _ _ _ _ _ _ _ _ _ _ _ _ _ ` _ _ _ _ _ _ _ _ _ _ ` ' ` ` ` ' ` ` ` ' ` ` ' ` ` ",
"_ ` ' ` _ _ _ _ _ _ _ _ _ _ _ _ _ _ _ ` _ _ _ _ ' ` ' _ _ _ _ _ _ _ _ _ _ _ _ _ _ _ _ ' _ _ _ _ _ _ _ ` ` ' ` ` ` ` ' _ _ _ _ _ _ _ _ _ _ _ ",
"_ _ _ _ ` ` _ _ _ _ _ _ _ _ _ _ _ _ _ _ ' _ _ _ _ _ _ ` ' _ _ _ _ _ _ _ _ _ _ _ _ _ ` _ _ _ _ ` ' ` ` _ _ _ _ _ _ _ _ ` ' _ _ _ _ _ _ _ _ _ ",
"_ _ _ _ _ _ ` ' ` _ _ _ _ _ _ _ _ _ _ _ _ ` _ _ _ _ _ _ _ ` ` _ _ _ _ _ _ _ _ _ ` ` _ ` ' ` ` _ _ _ _ _ _ _ _ _ _ _ _ _ _ ` ' ` _ _ _ _ _ _ ",
"_ _ _ _ _ _ _ _ _ ` ' ` ' _ _ _ _ _ _ _ _ _ ' _ _ _ _ _ _ _ _ ` ' ` ' ` ` ' ` ] ' ` ` _ _ _ _ _ _ _ _ _ _ _ _ _ _ _ _ ` _ _ _ _ ` ` ' ` _ _ ",
"_ _ _ _ _ _ _ _ _ _ ` ` ` ` _ _ _ _ _ _ _ _ _ ` ` _ _ _ _ _ _ _ _ _ _ _ ` ' ` _ _ _ _ _ _ _ _ _ _ _ _ _ _ _ _ _ _ ` ` _ _ _ _ _ _ _ _ _ ` ' "
};
