/* XPM */
static char *_b2fe3872bc34a3afd52ed668bff7b6dmcdTJHIF19HUFGik[] = {
/* columns rows colors chars-per-pixel */
"70 70 169 2 ",
"   c #16171A",
".  c #282211",
"X  c #2C241E",
"o  c #392C1A",
"O  c #2C2820",
"+  c #27282B",
"@  c #362E23",
"#  c #37322A",
"$  c #2C2D30",
"%  c #373431",
"&  c #393634",
"*  c #373830",
"=  c #3C373E",
"-  c #3A3B3D",
";  c #40301C",
":  c #4F3A1E",
">  c #553F1F",
",  c #583F1F",
"<  c #4B3B24",
"1  c #473B2C",
"2  c #49382D",
"3  c #533E24",
"4  c #5B3F21",
"5  c #533F29",
"6  c #423E3C",
"7  c #5A401F",
"8  c #4C402A",
"9  c #574324",
"0  c #5B4424",
"q  c #5E4826",
"w  c #554329",
"e  c #5B462A",
"r  c #5D492B",
"t  c #43423C",
"y  c #5C4B35",
"u  c #5F523C",
"i  c #664626",
"p  c #694726",
"a  c #644A26",
"s  c #6B4927",
"d  c #634729",
"f  c #6A4729",
"g  c #644B2A",
"h  c #6A4B2B",
"j  c #704729",
"k  c #714B2A",
"l  c #66512C",
"z  c #6C522D",
"x  c #72552E",
"c  c #745A2F",
"v  c #79592F",
"b  c #674E32",
"n  c #6A4E31",
"m  c #664E39",
"M  c #724F31",
"N  c #625134",
"B  c #6E5433",
"V  c #6F5837",
"C  c #655339",
"Z  c #6B5539",
"A  c #6F5A3B",
"S  c #735531",
"D  c #755B32",
"F  c #7A5C34",
"G  c #755C3A",
"H  c #7C5E3A",
"J  c #776135",
"K  c #7C6235",
"L  c #7D643A",
"P  c #414245",
"I  c #4D4946",
"U  c #5F5543",
"Y  c #5F5843",
"T  c #635841",
"R  c #6B5B41",
"E  c #765F41",
"W  c #7F6941",
"Q  c #7F7359",
"!  c #6A6664",
"~  c #6A6962",
"^  c #716E6B",
"/  c #757069",
"(  c #797368",
")  c #805E39",
"_  c #816537",
"`  c #826936",
"'  c #82663A",
"]  c #856A3B",
"[  c #8A6D3E",
"{  c #8B713E",
"}  c #90753F",
"|  c #856B41",
" . c #8B6E41",
".. c #877241",
"X. c #8C7241",
"o. c #917544",
"O. c #957C46",
"+. c #987E46",
"@. c #927648",
"#. c #967C4A",
"$. c #997E4A",
"%. c #827654",
"&. c #877660",
"*. c #877D67",
"=. c #897D66",
"-. c #8B7E69",
";. c #968046",
":. c #9A8247",
">. c #978148",
",. c #9C834C",
"<. c #9E894F",
"1. c #9D914F",
"2. c #8E8056",
"3. c #908055",
"4. c #9E8651",
"5. c #9F8950",
"6. c #9C875B",
"7. c #9F8D5F",
"8. c #A1874E",
"9. c #A18A4F",
"0. c #A18752",
"q. c #A28B52",
"w. c #A48E58",
"e. c #A69255",
"r. c #A89257",
"t. c #A79258",
"y. c #A99359",
"u. c #AA955A",
"i. c #AC985D",
"p. c #938762",
"a. c #9D8B61",
"s. c #A48F67",
"d. c #A38F6A",
"f. c #A7936E",
"g. c #A8926E",
"h. c #A59475",
"j. c #90C846",
"k. c #AE9D81",
"l. c #B19F83",
"z. c #B2A683",
"x. c #B6A987",
"c. c #B9A980",
"v. c #B6A988",
"b. c #BCAE8C",
"n. c #BEB28F",
"m. c #BEB291",
"M. c #C0B58A",
"N. c #C1B292",
"B. c #CFC3AD",
"V. c #D8CDBF",
"C. c #DDD5BF",
"Z. c #DDD5C3",
"A. c #E4DCC4",
"S. c #E5DED5",
"D. c #E2DFD8",
"F. c #E6E0D9",
"G. c #EFE9DF",
"H. c #F4EDDE",
"J. c #EDE8E0",
"K. c #F1EAE1",
"L. c #F6F1E4",
"P. c #FDF8E7",
"I. c #F4F4EE",
"U. c #FEF9E9",
"Y. c #FDFAEB",
"T. c #F6F5F2",
"R. c #FFFCF7",
"E. c #FFFEFA",
"W. c white",
/* pixels */
"j.j.j.j.j.j.j.j.j.j.j.j.j.j.j.9 9 9 9 9 9 9 9 9 9 9 9 9 9 9 9 9 9 9 9 9 9 9 9 9 9 9 9 9 9 9 9 9 9 9 9 9 9 9 9 j.j.j.j.j.j.j.j.j.j.j.j.j.j.j.",
"j.j.j.j.j.j.j.j.j.j.j.j.j.j.j.9 9 a F u.u.,.,.,.,.>.;.,.,.<.5.8.q.8.,.,.,.,.<.5.q.q.q.q.q.q.q.q.q.8.:.K L 9 9 j.j.j.j.j.j.j.j.j.j.j.j.j.j.j.",
"j.j.j.j.j.j.j.j.j.j.j.j.j.j.j.9 9 a F u.u...X.[ [ K D [ [ [  .[ ] ] ] ] ` [ [ ] ] [ [  .[ ] [  .X.X.[ h n 9 9 j.j.j.j.j.j.j.j.j.j.j.j.j.j.j.",
"j.j.j.j.j.j.j.j.j.j.j.j.j.j.j.9 9 p F u.u.[ [ [ [ D D _ ` ` ` ` _ _ ` [ _ ] ] _ ` K _ ` _ K _ [ [  .[ h n 9 9 j.j.j.j.j.j.j.j.j.j.j.j.j.j.j.",
"j.j.j.j.j.j.j.j.j.j.j.j.j.j.j.9 9 a F t.u.[  .x c x S S D x x c F v  .] F F F F F F F F D g x  . . .' h h 9 9 j.j.j.j.j.j.j.j.j.j.j.j.j.j.j.",
"j.j.j.j.j.j.j.j.j.j.j.j.j.j.j.9 9 i D y.y. ...x S Z V V V V Z V G G [ [ F F H H H H H H G N D [  . ._ h h 9 9 j.j.j.j.j.j.j.j.j.j.j.j.j.j.j.",
"j.j.j.j.j.j.j.j.j.j.j.j.j.j.j.9 9 9 z #.#.D D a Z I.E.E.E.E.E.E.E.U.[ X.a z V.H.K.K.K.K.G.J.B.[ ` J B 0 e 9 9 j.j.j.j.j.j.j.j.j.j.j.j.j.j.j.",
"j.j.j.j.j.j.j.j.j.j.j.j.j.j.j.9 9 3 g O.O.x D q C T.W.W.W.W.W.W.W.U.[ X.a g D.W.W.W.W.W.W.W.Z.[ [ D B 9 e 9 9 j.j.j.j.j.j.j.j.j.j.j.j.j.j.j.",
"j.j.j.j.j.j.j.j.j.j.j.j.j.j.j.9 9 s 0 1 2 B x x E T.W.W.W.W.W.W.W.U.+.:.D G F.W.W.W.W.W.W.W.C.,.$.` _ s n 9 9 j.j.j.j.j.j.j.j.j.j.j.j.j.j.j.",
"j.j.j.j.j.j.j.j.j.j.j.j.j.j.j.9 9 k e % & S x x L T.W.W.W.W.W.W.W.U.+.,.v H F.W.W.W.W.W.W.W.A.<.:.[ ' k S 9 9 j.j.j.j.j.j.j.j.j.j.j.j.j.j.j.",
"j.j.j.j.j.j.j.j.j.j.j.j.j.j.j.9 9 p m ~ ~ | ] h V I.W.E.E.E.E.W.W.U.;.,.c H F.W.W.E.E.E.E.W.A.,.+.` _ h n 9 9 j.j.j.j.j.j.j.j.j.j.j.j.j.j.j.",
"j.j.j.j.j.j.j.j.j.j.j.j.j.j.j.9 9 i C ^ / ] ` a Z I.W.W.W.W.W.W.W.U.;.,.x H F.W.W.W.W.W.W.W.A.:.+.` K h n 9 9 j.j.j.j.j.j.j.j.j.j.j.j.j.j.j.",
"j.j.j.j.j.j.j.j.j.j.j.j.j.j.j.9 9 s G p.p. .[ K L k.l.b.n.m.m.N.m.M.:.,.K _ h.k.v.b.v.z.x.N.c.,.:.[ ' h B 9 9 j.j.j.j.j.j.j.j.j.j.j.j.j.j.j.",
"j.j.j.j.j.j.j.j.j.j.j.j.j.j.j.9 9 k ) u.u.[ [  . . . .,.8.q.q.q.q.q.:.,.` ] ` ` O.,.+.X.+.q.q.8.,.[ ] k S 9 9 j.j.j.j.j.j.j.j.j.j.j.j.j.j.j.",
"j.j.j.j.j.j.j.j.j.j.j.j.j.j.j.9 9 i D w.q.` ] K K K K ] ............X.X.D F F F _ ] ] K _ ..X.@...[ L h h 9 9 j.j.j.j.j.j.j.j.j.j.j.j.j.j.j.",
"j.j.j.j.j.j.j.j.j.j.j.j.j.j.j.9 9 3 h O.O.D D a q r r q q q q q q q D D a g g g d d a q q q a D S D B 0 e 9 9 j.j.j.j.j.j.j.j.j.j.j.j.j.j.j.",
"j.j.j.j.j.j.j.j.j.j.j.j.j.j.j.9 9 , l :.+.F F a d &.-.=.=.-.-.=.-.=.K K a h &.-.-.-.=.=.-.*.%.D D F D 9 e 9 9 j.j.j.j.j.j.j.j.j.j.j.j.j.j.j.",
"j.j.j.j.j.j.j.j.j.j.j.j.j.j.j.9 9 f F u.u.{ X.F D L.W.W.W.W.W.W.W.U.5.w.F H F.W.W.W.W.W.W.W.A.q.,.X.] h n 9 9 j.j.j.j.j.j.j.j.j.j.j.j.j.j.j.",
"j.j.j.j.j.j.j.j.j.j.j.j.j.j.j.9 9 p F u.u.{ X.F S L.W.W.W.W.W.W.W.U.,.q.F H F.W.W.W.W.W.W.W.A.8.,.{ ` h n 9 9 j.j.j.j.j.j.j.j.j.j.j.j.j.j.j.",
"j.j.j.j.j.j.j.j.j.j.j.j.j.j.j.9 9 p F q.w.] ] x z L.W.W.W.W.W.W.W.U.,.<.S S S.W.W.W.W.W.W.W.A.:.$.` K h n 9 9 j.j.j.j.j.j.j.j.j.j.j.j.j.j.j.",
"j.j.j.j.j.j.j.j.j.j.j.j.j.j.j.9 9 p F q.w.` ] x z L.W.W.W.W.W.W.W.U.:.5.S S S.W.W.W.W.W.W.W.A.:.+.` _ h n 9 9 j.j.j.j.j.j.j.j.j.j.j.j.j.j.j.",
"j.j.j.j.j.j.j.j.j.j.j.j.j.j.j.9 9 p F u.u.[  .F S L.W.W.W.W.W.W.W.U.+.,.x S F.W.W.W.W.W.W.W.A.0.:.[ _ h n 9 9 j.j.j.j.j.j.j.j.j.j.j.j.j.j.j.",
"j.j.j.j.j.j.j.j.j.j.j.j.j.j.j.9 9 i F u.u.[  .F S H.E.R.R.R.R.R.R.P.+.,.x S S.R.R.R.R.E.R.R.A.8.:.[ _ h b 9 9 j.j.j.j.j.j.j.j.j.j.j.j.j.j.j.",
"j.j.j.j.j.j.j.j.j.j.j.j.j.j.j.9 9 9 B ,.,.D F D D d.f.d.d.d.d.d.d.s.} X.x D a.f.f.f.f.f.g.d.6.{ [ D D q r 9 9 j.j.j.j.j.j.j.j.j.j.j.j.j.j.j.",
"j.j.j.j.j.j.j.j.j.j.j.j.j.j.j.9 9 4 g O.O.x D D D o.} { [ [ [ [ [ ] X.X.D D [ o.} { { X.{ [ [ [ [ S z 3 e 9 9 j.j.j.j.j.j.j.j.j.j.j.j.j.j.j.",
"j.j.j.j.j.j.j.j.j.j.j.j.j.j.j.9 9 i S q.8.K _ _ _ $.:.$.$.+.o.O.$.+.+.O.J K o.+.+.+.+.+.+.+.o.{ [ L F i h 9 9 j.j.j.j.j.j.j.j.j.j.j.j.j.j.j.",
"j.j.j.j.j.j.j.j.j.j.j.j.j.j.j.9 9 k ) u.u. . .[ [ q.q.q.q.<.,.,.q.q.:.:.` ] >.,.,.,.,.,.,.8.,.{ X. .[ k S 9 9 j.j.j.j.j.j.j.j.j.j.j.j.j.j.j.",
"j.j.j.j.j.j.j.j.j.j.j.j.j.j.j.9 9 k ) u.u.[  .L L #.#.#.#.#.@.@.#.#.#.$._ ' X.@.@.@.@.@.@.#.@... .[ ] k S 9 9 j.j.j.j.j.j.j.j.j.j.j.j.j.j.j.",
"j.j.j.j.j.j.j.j.j.j.j.j.j.j.j.9 9 s F y.y.` [ g g F F F F F F F F F [ [ F F F F F F S x x x D [ ] ] K s M 9 9 j.j.j.j.j.j.j.j.j.j.j.j.j.j.j.",
"j.j.j.j.j.j.j.j.j.j.j.j.j.j.j.9 9 s F u.u.` ] s g F F F F F K K F F { [ F F F F F F V C N N N R A _ H k S 9 9 j.j.j.j.j.j.j.j.j.j.j.j.j.j.j.",
"j.j.j.j.j.j.j.j.j.j.j.j.j.j.j.9 9 k ) u.u.{  .x x ` ` ` ` ]  . . .{ ,.,.F F ] [ ` ` T P - $ +   X f k j S 9 9 j.j.j.j.j.j.j.j.j.j.j.j.j.j.j.",
"j.j.j.j.j.j.j.j.j.j.j.j.j.j.j.9 9 f S 3.2.] [ x z _ _ _ _ ' | [ [ ] $.$.S D _ [ ] _ u - * # @ o ; i i p n 9 9 j.j.j.j.j.j.j.j.j.j.j.j.j.j.j.",
"j.j.j.j.j.j.j.j.j.j.j.j.j.j.j.9 9 3 < % & G D a g G F D S S S D F F [  .e d D D D c 8   . : q  .K < : 3 e 9 9 j.j.j.j.j.j.j.j.j.j.j.j.j.j.j.",
"j.j.j.j.j.j.j.j.j.j.j.j.j.j.j.9 9 7 5 6 t G F g a F K D D D D F K K X.X.g g D F D F e O o 0 z o._ 9 9 3 r 9 9 j.j.j.j.j.j.j.j.j.j.j.j.j.j.j.",
"j.j.j.j.j.j.j.j.j.j.j.j.j.j.j.9 9 i m ! ~ W ] x x ] ] _ _ ` ] [ [ ] ,.4.z x [ [ [ [ ` _ _ [ ..q.:.[ L p b 9 9 j.j.j.j.j.j.j.j.j.j.j.j.j.j.j.",
"j.j.j.j.j.j.j.j.j.j.j.j.j.j.j.9 9 i C / ( | ` D S [ ` ] ] [ o.X.X.{ 8.0.x S [ X.X.X.X.X.X.X.O.q.,. .' h n 9 9 j.j.j.j.j.j.j.j.j.j.j.j.j.j.j.",
"j.j.j.j.j.j.j.j.j.j.j.j.j.j.j.9 9 i D 7.7.[  .` _ { { $.:.,.,.:.$.$.,.,.J L o.$.$.+.:.,.,.+.:.8.,. .' h n 9 9 j.j.j.j.j.j.j.j.j.j.j.j.j.j.j.",
"j.j.j.j.j.j.j.j.j.j.j.j.j.j.j.9 9 p F u.u.[  .[ [ X.X.,.q.q.q.q.,.,.,.,.` ] +.,.,.,.,.q.,.,.,.q.,.X.' h n 9 9 j.j.j.j.j.j.j.j.j.j.j.j.j.j.j.",
"j.j.j.j.j.j.j.j.j.j.j.j.j.j.j.9 9 p F t.u.[  .[ [ [ ] { [ [ ....X.X.X.X. . .X.X.o.o.X.X. .L ` X.X. .' h h 9 9 j.j.j.j.j.j.j.j.j.j.j.j.j.j.j.",
"j.j.j.j.j.j.j.j.j.j.j.j.j.j.j.9 9 f F u.y.{ { ` ] ` ` ` ] ] ` ` [ [ [ [ [  . . . . . .[ [ D K [ { X.` h n 9 9 j.j.j.j.j.j.j.j.j.j.j.j.j.j.j.",
"j.j.j.j.j.j.j.j.j.j.j.j.j.j.j.9 9 9 z $.$.D F h z z z z z z z z z z K K z z z z z z z z z g z D F K D 0 r 9 9 j.j.j.j.j.j.j.j.j.j.j.j.j.j.j.",
"j.j.j.j.j.j.j.j.j.j.j.j.j.j.j.9 9 > g o.o.x D a q d d d d d g g d a D D d d g d r q q q r e d S D D B 9 e 9 9 j.j.j.j.j.j.j.j.j.j.j.j.j.j.j.",
"j.j.j.j.j.j.j.j.j.j.j.j.j.j.j.9 9 p D q.q.K L z z D K J F K L L L L o.X.z S D J K F D B D K ] o.X.] K h n 9 9 j.j.j.j.j.j.j.j.j.j.j.j.j.j.j.",
"j.j.j.j.j.j.j.j.j.j.j.j.j.j.j.9 9 k _ u.u.` ` x x [ ` ` [ [  . . . .,.,.F F ] [ [ [ K D K [ o.q.:.[ ' k S 9 9 j.j.j.j.j.j.j.j.j.j.j.j.j.j.j.",
"j.j.j.j.j.j.j.j.j.j.j.j.j.j.j.9 9 s F t.e.] ` h h [ ` ] ] [  .[ { ..,.,.v F ` [ ] [ _ K _ ] X.,.$.[ _ s B 9 9 j.j.j.j.j.j.j.j.j.j.j.j.j.j.j.",
"j.j.j.j.j.j.j.j.j.j.j.j.j.j.j.9 9 a D q.9.] ] a a ] [ [ [ [ [ [  .{ ,.,.x v ` [ [ [ [ [ ] [ { ,.+.` _ g n 9 9 j.j.j.j.j.j.j.j.j.j.j.j.j.j.j.",
"j.j.j.j.j.j.j.j.j.j.j.j.j.j.j.9 9 s F t.e.] ] h h [ [ [ [ [ [ [  .{ ,.,.x x ` [ ` ` [ [ [ ` { ,.$.[ _ h n 9 9 j.j.j.j.j.j.j.j.j.j.j.j.j.j.j.",
"j.j.j.j.j.j.j.j.j.j.j.j.j.j.j.9 9 k K i.u.{ X.F F [ [ [  . .X.{  .[ ,.,.x x _ ` K D L  .[  .@.q.,.X.[ k S 9 9 j.j.j.j.j.j.j.j.j.j.j.j.j.j.j.",
"j.j.j.j.j.j.j.j.j.j.j.j.j.j.j.9 9 k L u.u.{ X.F F [ [  .X.X.X.X.X.[ ,.,.z x _ _ J c _ X.X.X.X.q.,. .[ M B 9 9 j.j.j.j.j.j.j.j.j.j.j.j.j.j.j.",
"j.j.j.j.j.j.j.j.j.j.j.j.j.j.j.9 9 , g +.O.c D D x ] [ [ [ [ [ [ [ [ X.X.D D { X.X.[ [ [ [ [ [ [ ` D B 9 e 9 9 j.j.j.j.j.j.j.j.j.j.j.j.j.j.j.",
"j.j.j.j.j.j.j.j.j.j.j.j.j.j.j.9 9 , g +.o.c D D x ] [ [ [ [ { { [ [ o.X.x D [ X.{ [ [ [ [ [ [ [ ` c z 3 e 9 9 j.j.j.j.j.j.j.j.j.j.j.j.j.j.j.",
"j.j.j.j.j.j.j.j.j.j.j.j.j.j.j.9 9 i F i.u.[ [ X.X.X.X. . ._ D F [ `  . .X.[ [ [ [ [ [ [ [ [ X.X.X.X.] h h 9 9 j.j.j.j.j.j.j.j.j.j.j.j.j.j.j.",
"j.j.j.j.j.j.j.j.j.j.j.j.j.j.j.9 9 h F u.y.[ [  . . . . . .' D F [ ]  . . . . . . .[ [  . . . ... . ._ h h 9 9 j.j.j.j.j.j.j.j.j.j.j.j.j.j.j.",
"j.j.j.j.j.j.j.j.j.j.j.j.j.j.j.9 9 h F q.w.` [ x S S S S S D F F F F [  .x S S S S x z g z F F ] ` ` _ h n 0 9 j.j.j.j.j.j.j.j.j.j.j.j.j.j.j.",
"j.j.j.j.j.j.j.j.j.j.j.j.j.j.j.9 9 g D w.1.] ` x x S S x x S F F F D [ [ x S x x x x z a h F F ] ` ` L s n 9 9 j.j.j.j.j.j.j.j.j.j.j.j.j.j.j.",
"j.j.j.j.j.j.j.j.j.j.j.j.j.j.j.9 9 i g U Y  .[ c x K _ _ _ _ ' ' K K O.#.x x K K K K K F K _ [ +.o.[ _ s n 9 9 j.j.j.j.j.j.j.j.j.j.j.j.j.j.j.",
"j.j.j.j.j.j.j.j.j.j.j.j.j.j.j.9 9 i 5 # = | [ F F [ [  . . . .[ ` ` ,.,.z x _ ` [ [ [ [  .[ X.q.:.[ _ s n 9 9 j.j.j.j.j.j.j.j.j.j.j.j.j.j.j.",
"j.j.j.j.j.j.j.j.j.j.j.j.j.j.j.9 9 q e I I L _ z B _ _ _ _ _ _ L L K $.$.z z K L ' _ _ _ _ L  .$.@.L K d g 9 9 j.j.j.j.j.j.j.j.j.j.j.j.j.j.j.",
"j.j.j.j.j.j.j.j.j.j.j.j.j.j.j.9 9 3 y ^ ^ V S d d D D D D D S D D x X.X.a a D D D D D D D D F [ ] x z 9 e 9 9 j.j.j.j.j.j.j.j.j.j.j.j.j.j.j.",
"j.j.j.j.j.j.j.j.j.j.j.j.j.j.j.9 9 4 b Q Q D D a s F F D D D D c D c } o.a a c F F F F D D D K [ ` D x 0 r 9 9 j.j.j.j.j.j.j.j.j.j.j.j.j.j.j.",
"j.j.j.j.j.j.j.j.j.j.j.j.j.j.j.9 9 k H i.i.{  .F F  . . . .] ] [  ...,.,.S x _ [ [ [ [ [ ` [  .X.X.[ ` k S 9 9 j.j.j.j.j.j.j.j.j.j.j.j.j.j.j.",
"j.j.j.j.j.j.j.j.j.j.j.j.j.j.j.9 9 k F u.u.[  .F F ..{ { { [ ] ` X.X.,.,.x x ` ` ] ] ` ` [ [ { } { ..` k S 9 9 j.j.j.j.j.j.j.j.j.j.j.j.j.j.j.",
"j.j.j.j.j.j.j.j.j.j.j.j.j.j.j.9 9 p F r.t.` [ D D q.q.q.q.q.q.q.q.w.:.,. ...,.q.q.q.4.,.,.,.,.,.+.` L s M 9 9 j.j.j.j.j.j.j.j.j.j.j.j.j.j.j.",
"j.j.j.j.j.j.j.j.j.j.j.j.j.j.j.9 9 s F y.y.` [ F D 4.0.4.0.4.4.4.4.4.:.$. ...:.,.4.,.,.:.:.,.,.,.O.` _ h S 9 9 j.j.j.j.j.j.j.j.j.j.j.j.j.j.j.",
"j.j.j.j.j.j.j.j.j.j.j.j.j.j.j.9 9 k ) u.y.[ [ ` ] ` [ ] ]  .X.X.X.X.] ]  . .X.X.[ ` [ [ [ X.....X. .[ h S 9 9 j.j.j.j.j.j.j.j.j.j.j.j.j.j.j.",
"j.j.j.j.j.j.j.j.j.j.j.j.j.j.j.9 9 s F t.w.[ [ _ L _ _ L L ] [ | | | L L [ [ [ [ _ K _ _ [ | ] [ | | ' h S 9 9 j.j.j.j.j.j.j.j.j.j.j.j.j.j.j.",
"j.j.j.j.j.j.j.j.j.j.j.j.j.j.j.9 9 0 g ' L q e 0 q d d q 9 0 0 0 d d 0 0 e e e e q q 0 0 9 w 9 0 0 0 0 9 r 9 9 j.j.j.j.j.j.j.j.j.j.j.j.j.j.j.",
"j.j.j.j.j.j.j.j.j.j.j.j.j.j.j.9 9 w r L G 9 w w w e e w 5 5 5 w w e 5 5 w 9 9 9 w w w w 8 < < 5 5 5 w 9 y 9 9 j.j.j.j.j.j.j.j.j.j.j.j.j.j.j.",
"j.j.j.j.j.j.j.j.j.j.j.j.j.j.j.9 9 9 9 9 9 9 9 9 9 9 9 9 9 9 9 9 9 9 9 9 9 9 9 9 9 9 9 9 9 9 9 9 9 9 9 9 9 9 9 j.j.j.j.j.j.j.j.j.j.j.j.j.j.j.",
"j.j.j.j.j.j.j.j.j.j.j.j.j.j.j.9 9 9 9 9 9 9 9 9 9 9 9 9 9 9 9 9 9 9 9 9 9 9 9 9 9 9 9 9 9 9 9 9 9 9 9 9 9 9 9 j.j.j.j.j.j.j.j.j.j.j.j.j.j.j."
};
