/* XPM */
static char *_4cff4cffc854bcc82c7abf8a11261ccLMsbUpRsg4axWkKP[] = {
/* columns rows colors chars-per-pixel */
"70 70 5 1 ",
"  c #90C846",
". c #97CB52",
"X c #9ECF5E",
"o c #A5D26A",
"O c #ACD676",
/* pixels */
"                      X                                               ",
"                       ..X                                            ",
"                  .X..   .                                            ",
"            .X...X    X.  X.        o                                 ",
"         .X.            .X  .X.     .                                 ",
"       ..        ..X...X..XO.  X    .                                 ",
"      X     ..X..           .XX ..  .                                 ",
"    .. ..X..                  .X. .Xo.X..                             ",
"   X X. X..X....X..             .X  .    ..X..              X.X       ",
" ....  .           ..X..         X.  X        ..X....     X.        .X",
"X .   X                 .X..     . . .               ...XX...X...X..  ",
"..   .                      .X..Xo  X.                  .             ",
"X.   X                          . .X.O                 X              ",
"  .X..                          .    .X.X....X....X...XX....X....X...X",
"    .X                         X     . X              .             X ",
"    X o                     .X.      X  .            X            ..  ",
"    . .                  X..         .   .          .            .    ",
"   .   .               ..            X   .         .            X     ",
"   .    X             X              .    X       .           ..      ",
"   X     .          ..              .      .      .          .        ",
"   .      X       ..                X       .    .          X         ",
"  .        .     X                  .       .   X         ..          ",
"  X         .  ..                   .        . .         .   .X.X.X   ",
" .          .X.                     X         o      ...O..X.      .. ",
".           ..                    ..XX.....X.X.X.X...  .             X",
"           .  X            ...X... .        .   .    ..               ",
"         .X   .     ...X...        X       X    .   .                 ",
"       ..    ..OX...               .      .      X X                  ",
"    .X. ..X..  ..X.                .     .        X                   ",
"  XX.X..        X  .X.             X     .       . ..                 ",
"Xo.              ..   ..           .    .       .    X              ..",
"                   .    .X        .    X       .      .           .X  ",
"                    X     ..      X   .       X        .        ..    ",
"                     .      .X... .   .      .         .X.X....X      ",
"                      .          o..XX...X..X.X.....X..  X            ",
"                      .          .  .      .              .           ",
"                       .        .   .     X         .X..   ..         ",
"X.X.                    X       .  X    .. ..X...X..    ..X..XX..     ",
"    ..X...X...           .     X  .    XX..                   X  XX..X",
".             ....X.....X.X...o..X.XXoX                        .o     ",
" X.                        .  . X.X.X ...X..                    ...   ",
"   .X.                     .Oo.X  ..        ...X....X           X  X  ",
"      .X               ....  XX  .                   ..        .    ..",
".       ..      .X...X.      o ..                      .X....Xo..X..XX",
" X      .XXX.X..            X.o                              .  ..X.  ",
" .o..X..    .X.           ..O  X                           ..O..      ",
".  X.          ..X....Xoooo..   .             ...X......X....         ",
"     ..X.         .XXo... X.     X     ...X...            X           ",
"         ..X....X.       . .     .XX...                 ..            ",
"                       .. o..X...  X.                  X              ",
"                   ...o....          .X..            ..               ",
"              .X...  X   .               ..X.....X.oX..X........X....X",
"           ...     ..    .                       ..                .X.",
"       ..X.      ..      .                      X                .X   ",
"    X..       .X.       .                     ..               X.     ",
"  ..       ...          X                    X               ..       ",
"X.      .X.             .                   .              .X         ",
"...X....                .                  .            .X.           ",
"   .X...X.....X...     .                  X            X              ",
".X..              ...X.o                 .            .            .. ",
". X.X.                 ....X........X..XX..X.....X.. .           .X   ",
" .    ....             .              .             .X.X..    ..X     ",
"X         .X......X..  .             X              X     ..X.        ",
"                     ..oX..        ..              ..                 ",
"                       .   ...X.XoX.X..         .X.                   ",
"                      X     .X..       ..X....X.                      ",
"                      .  .X.                                          ",
"                      XX.                                             ",
"                   ..o.                                               ",
"             ..X..XX.                                                 "
};
