/* XPM */
static char *ff33058cb5504da4c76eb395cead1c03lFw8rcR4CQFyJxhl[] = {
/* columns rows colors chars-per-pixel */
"32 32 25 1 ",
"  c #455A35",
". c #4C643B",
"X c #536E41",
"o c #5A7847",
"O c #E23C3C",
"+ c #E44949",
"@ c #E65656",
"# c #61824D",
"$ c #688C53",
"% c #6F9659",
"& c #76A05F",
"* c #7EA669",
"= c #EBFF06",
"- c #86AC73",
"; c #8EB27D",
": c #96B887",
"> c #9EBE91",
", c #A6C49B",
"< c #AFCAA5",
"1 c #C1D6B9",
"2 c #D1E6A0",
"3 c #CADCC3",
"4 c #DBE8D7",
"5 c #E4EEE1",
"6 c #EDF4EB",
/* pixels */
"**&-,>;*&&&&$#$%o  .oo#%%$$***-$",
"%#%*&*&%$oXoo.    #%$$o#%&-:-#oo",
"$&--*-$Xoo.      o&$X$*-&$$#oXoo",
":>-$o.          X%# #***%o.     ",
":%#.           .$$#$&&X         ",
"$.            X#$$$%#.          ",
"             .o%&$oX.           ",
"             Xo%&oX.      22    ",
"             o*-#XX      2222   ",
"             o31#o.     22@@22  ",
"   @@@      .X65oo      22@@22  ",
"  @@@@@     XX44XX       2222   ",
"  @@=@@     Xo>:XX        22    ",
"  O+@@@     .*:*$.              ",
"   +@@      .-:;&               ",
"           .X#$%#               ",
"           XoX$$.           .XX*",
"           X$#%$          XoX#%<",
"          Xo%&#X         .o$$%**",
"         X%&&$.         .#$*-%&$",
"      .#$#$&$.         o$*;;*ooo",
"  .ooo#$$#$#.         .&--*#o.  ",
"oo$%%$oXo$$X          %;%$o     ",
"-&%%&--%#o.         Xo-;#o.     ",
"%#o&-;:%.          .oo--#o      ",
"*--*;%X.           oo.**X.      ",
";-*#$o             ooX&*o       ",
"X                  oo#*&o       ",
"                  .oX%;$.       ",
"                  oo $;$        ",
"                  oo $-#        ",
"                  oo *:o        "
};
