/* XPM */
static char *_5d901a977ba43c1c28cfa70805345b5w4Cx03gRzNSZ9kEI[] = {
/* columns rows colors chars-per-pixel */
"70 70 232 2 ",
"   c #020202",
".  c #090906",
"X  c #090709",
"o  c #0C0A0C",
"O  c #110D0E",
"+  c #190C0A",
"@  c #0E100E",
"#  c #14120F",
"$  c #181A0F",
"%  c #0D0C10",
"&  c #120F11",
"*  c #151112",
"=  c #1B1414",
"-  c #1D1816",
";  c #16161A",
":  c #1B1619",
">  c #1D1919",
",  c #211615",
"<  c #271716",
"1  c #231916",
"2  c #231C1B",
"3  c #2A1E1C",
"4  c #3E1D15",
"5  c #1E250B",
"6  c #252516",
"7  c #25201E",
"8  c #2B211E",
"9  c #32241E",
"0  c #1F1E21",
"q  c #241F20",
"w  c #252122",
"e  c #2C2423",
"r  c #2E2926",
"t  c #252529",
"y  c #2B2629",
"u  c #2D292B",
"i  c #322623",
"p  c #342926",
"a  c #3A2B25",
"s  c #312628",
"d  c #352C2A",
"f  c #3A2E2B",
"g  c #37312C",
"h  c #3D312D",
"j  c #2F2B36",
"k  c #342E31",
"l  c #363131",
"z  c #3B3432",
"x  c #3E3935",
"c  c #3D3939",
"v  c #432017",
"b  c #43342D",
"n  c #48342A",
"m  c #4D392E",
"M  c #433532",
"N  c #493731",
"B  c #453935",
"V  c #4C3C35",
"C  c #443C3A",
"Z  c #4A3E3A",
"A  c #523C34",
"S  c #513F39",
"D  c #6A3C33",
"F  c #49423B",
"G  c #4C423B",
"H  c #574638",
"J  c #54443C",
"K  c #5A453B",
"L  c #624A3C",
"P  c #78483C",
"I  c #4C4341",
"U  c #4C4745",
"Y  c #534542",
"T  c #584643",
"R  c #554A44",
"E  c #5B4C44",
"W  c #544D49",
"Q  c #5B4D4A",
"!  c #56504C",
"~  c #5D524D",
"^  c #514B50",
"/  c #595652",
"(  c #634D43",
")  c #7A4C42",
"_  c #645345",
"`  c #6C5445",
"'  c #63534B",
"]  c #6A5849",
"[  c #6D5C4C",
"{  c #735747",
"}  c #725D4C",
"|  c #7A5D4C",
" . c #645B54",
".. c #655B57",
"X. c #6C5C53",
"o. c #715D53",
"O. c #7C5F55",
"+. c #74614A",
"@. c #7D624C",
"#. c #6C6155",
"$. c #66605D",
"%. c #6B625C",
"&. c #756354",
"*. c #7B6453",
"=. c #74645B",
"-. c #7A675C",
";. c #76695B",
":. c #7C6A5C",
">. c #6E6C6A",
",. c #776A62",
"<. c #7B7267",
"1. c #86574A",
"2. c #81644D",
"3. c #84684F",
"4. c #846455",
"5. c #846952",
"6. c #8B6C55",
"7. c #846C5B",
"8. c #8C6D5B",
"9. c #936D56",
"0. c #976B58",
"q. c #867157",
"w. c #8D725C",
"e. c #93735C",
"r. c #9C745D",
"t. c #94795E",
"y. c #9E7A5E",
"u. c #AC6F5E",
"i. c #A0755E",
"p. c #A27A5E",
"a. c #846D62",
"s. c #8C7563",
"d. c #887768",
"f. c #957661",
"g. c #9A7762",
"h. c #967B64",
"j. c #9C7C64",
"k. c #977569",
"l. c #937A6C",
"z. c #9D7E6B",
"x. c #857A74",
"c. c #A37C63",
"v. c #A97A65",
"b. c #A97E65",
"n. c #A17F6A",
"m. c #B27D6B",
"M. c #A07C70",
"N. c #C07E6A",
"B. c #9E8066",
"V. c #96816B",
"C. c #9E816A",
"Z. c #898176",
"A. c #978677",
"S. c #9B8474",
"D. c #A28165",
"F. c #A3836C",
"G. c #A6876C",
"H. c #AC836C",
"J. c #A98A6E",
"K. c #B1866E",
"L. c #A48572",
"P. c #AB8571",
"I. c #A58A72",
"U. c #AB8B73",
"Y. c #A6857A",
"T. c #A8887A",
"R. c #AD8D7A",
"E. c #B28572",
"W. c #B38B74",
"Q. c #B68C77",
"!. c #BB8E79",
"~. c #AE9175",
"^. c #A7917C",
"/. c #AC937C",
"(. c #B6977B",
"). c #B3937C",
"_. c #BC937C",
"`. c #C2856F",
"'. c #C58A75",
"]. c #C4947C",
"[. c #C7967D",
"{. c #90C846",
"}. c #7D7883",
"|. c #91559F",
" X c #AE7BCC",
".X c #9B9084",
"XX c #A78D81",
"oX c #AC9885",
"OX c #B49583",
"+X c #BB9680",
"@X c #B59A83",
"#X c #BB9A83",
"$X c #B5958A",
"%X c #BD9D8A",
"&X c #BD9E91",
"*X c #BBA084",
"=X c #BDA18B",
"-X c #B8A495",
";X c #B3B4AD",
":X c #C79985",
">X c #C49C84",
",X c #C99C85",
"<X c #D39C86",
"1X c #C3A28B",
"2X c #CBA48B",
"3X c #CBA38C",
"4X c #D5A38B",
"5X c #C4A694",
"6X c #C5AA94",
"7X c #CAAB94",
"8X c #CBA896",
"9X c #D5AC95",
"0X c #C5B39E",
"qX c #CCB39D",
"wX c #D9B49C",
"eX c #E4AF97",
"rX c #CEB6A1",
"tX c #CCBAA6",
"yX c #D2B6A2",
"uX c #D2BAA3",
"iX c #D8BDAA",
"pX c #E3BEA4",
"aX c #D7C1AC",
"sX c #D9C7B6",
"dX c #CACAC1",
"fX c #D4D4CA",
"gX c #D7D7CB",
"hX c #DEE0D8",
"jX c #E3E6DD",
"kX c #E7EAE2",
"lX c #EAECE3",
"zX c #F0F4EC",
/* pixels */
"{.{.{.{.{.{.{.{.{.{.{.{.{.{.{.{.{.{.{.{.{.{.{.{.{.{.{.{.{.  . = = > I ' ,.,.B > o   {.{.{.{.{.{.{.{.{.{.{.{.{.{.{.{.{.{.{.{.{.{.{.{.{.{.{.{.",
"{.{.{.{.{.{.{.{.{.{.{.{.{.{.{.{.{.{.{.{.    {.{.{.{.  * x E E ,.o.J :.a.-.o.o.[ ' J 2 {.{.{.{.{.{.{.{.{.{.{.{.{.{.{.{.{.{.{.{.{.{.{.{.{.{.{.",
"{.{.{.{.{.{.{.{.{.{.{.{.{.{.{.{.{.  > x.d.d.=.=...x.~ <.o.o.=.=.' J Q J T X.E :._ K ` R o   {.{.{.{.{.{.{.{.{.{.{.{.{.{.{.{.{.{.{.{.{.{.{.{.",
"{.{.{.{.{.{.{.{.{.{.{.{.{.{.{.{.w I Z.<.d.,.o.-.' ] _ o.&.o._ T ' Y Y Q Q Y B V Z J K ` ` E f # {.{.{.{.{.{.{.{.{.{.{.{.{.{.{.{.{.{.{.{.{.{.",
"{.{.{.{.{.{.{.{.{.{.{.{.{.{.{.2 ..x.X.=.~ ' J V V T N T m ( ( _ -.X.( Q Q Q f i C h e u p J ` { &.* {.{.{.{.{.{.{.{.{.{.{.{.{.{.{.{.{.{.{.{.",
"{.{.{.{.{.{.{.{.{.{.{.{.{.{.7 ..<.R ~ C C W I G Z Z Z f p h Z b N A ( E J M B V b Z Z B M f Y Y J { f * {.{.{.{.{.{.{.{.{.{.{.{.{.{.{.{.{.{.",
"{.{.{.{.{.{.{.{.{.{.{.{.{.* R >.%.h Q ,.%.W ../ $.z h d d e f p p p f f i i d d d f f M M V ( E f a m K ~ {.{.{.{.{.{.{.{.{.{.{.{.{.{.{.{.{.",
"{.{.{.{.{.{.{.{.{.{.{.{.{.d X.$.' W x.,.~ ..$.%.F U / Z d w w e p i 3 p B p f f f f f i e > > u p ' ( A A Y   {.{.{.{.{.{.{.{.{.{.{.{.{.{.{.",
"{.{.{.{.{.{.{.{.{.{.{.{.{.[ Z ~ %.~ ..$.<.~ Z B M G B I I d p r w e w w e 8 p p p w w w q w q 2 i p f b n V 2 {.{.{.{.{.{.{.{.{.{.{.{.{.{.{.",
"{.{.{.{.{.{.{.{.{.{.{.{.d ;.Q #.=...c w z U Z W p e p M w r z 8 B p e 3 2 Z i p i f h e 2 2 2 w 7 e p p i m A . {.{.{.{.{.{.{.{.{.{.{.{.{.{.",
"{.{.{.{.{.{.{.{.{.{.{.{.' [ ;...R I I C ^ l u 2 d p 7 1 2 w 7 p p a 9 f h h M h h f M p d 7 i s w w 3 p a 9 n V   {.{.{.{.{.{.{.{.{.{.{.{.{.",
"{.{.{.{.{.{.{.{.{.{.{.  <.#.#.G d x $.>./ x.c C ! y 2 f 2 2 1 - e e i a V V a p h M d b a d 3 B i p 2 9 b V n A 7 {.{.{.{.{.{.{.{.{.{.{.{.{.",
"{.{.{.{.{.{.{.{.{.{.{.* #.#.X.h p F l 2 l l U C p d 2 w r 1 - 2 = 1 1 p 3 f V a 8 3 i p p a i 2 i a i a a Z n K ]   {.{.{.{.{.{.{.{.{.{.{.{.",
"{.{.{.{.{.{.{.{.{.{.{.u ;.' G p e 2 u ^ y l ! ! d l 2 w w > 2 1 > > * = > 2 i i < 3 3 - 3 9 3 3 a 9 Z T T ' E A ` e {.{.{.{.{.{.{.{.{.{.{.{.",
"{.{.{.{.{.{.{.{.{.{.{.> #.' B i w > 2 q : y 2 F F B r 2 - 7 1 x = * & > = - > = 3 3 = 3 2 , < i 9 a i a J E J a K `   {.{.{.{.{.{.{.{.{.{.{.",
"{.{.{.{.{.{.{.{.{.{.{.o ~ E h r 7 w 2 2 2 2 B W d z d e 7 > = = 2 2 2 - 1 - - - - = , = 2 , = 3 i 3 a b Q T A K A H 9 {.{.{.{.{.{.{.{.{.{.{.",
"{.{.{.{.{.{.{.{.{.{.{.  X.X.z p d e f h h M Z ..d x Z w 2 2 1 > - = < e p w 1 w - 1 e - 1 - * - = e f d M ' E V b H 9   {.{.{.{.{.{.{.{.{.{.",
"{.{.{.{.{.{.{.{.{.{.{.{.# oXY b G ;.:.d.7.a.;.] ;.Z g r 2 > - 1 2 2 = , , 2 7 2 2 1 1 = , 3 1 , 2 8 < p p f M B b N L   {.{.{.{.{.{.{.{.{.{.",
"{.{.{.{.{.{.{.{.{.{.{.{...<.J V ^.@X=X^.=X/.S.X.' p 7 w 7 - > O * - = 3 = = = 2 2 < 1 2 = 2 2 8 f 2 i 8 3 3 3 V b a } } {.{.{.{.{.{.{.{.{.{.",
"{.{.{.{.{.{.{.{.{.{.{.{.  / ;.S.qXqXqX6X6X@XS.:...F C y 2 * - = & o O * - 2 2 1 = 1 - = 1 2 , , 9 i 8 a p 3 e i f f H 6.O {.{.{.{.{.{.{.{.{.",
"{.{.{.{.{.{.{.{.{.{.{.{.{.: ,.rXuXqXqX6X%X/.I.&.~ ..I w > & 2 - = * * * * * X o o O - = = , < < 3 a a a a f h M f b a 7.H {.{.{.{.{.{.{.{.{.",
"{.{.{.{.{.{.{.{.{.{.{.{.{.{.XXaXuXqXrX7X@X/.I.a...W W d w y > > > = * = * O & = * o o & & - 2 2 f a p h M a f Z M ~ S ` L   {.{.{.{.{.{.{.{.",
"{.{.{.{.{.{.{.{.{.{.{.{.{.  oXuXqXqXqX#X).).S.d.#.W C C z 2 2 7 = > = = * = O O & O O O O o o & 1 = 2 r 1 i V G Z V K J *.# {.{.{.{.{.{.{.{.",
"{.{.{.{.{.{.{.{.{.{.{.{.{.# oXaXqXrX6X%X).OXC.:.R Y C g r e 1 = 1 O = o O * > = 2 = = , 3 = - = O 2 O O * > f J Z R T :.w.7 {.{.{.{.{.{.{.{.",
"{.{.{.{.{.{.{.{.{.{.{.{.{.d 0XrXrXuX1X).).U.F.7.E B d d w w 2 # = = 2 * * * O = 1 o & O = e = = - 1 1 > o X * f ~ Y ..( | - {.{.{.{.{.{.{.{.",
"{.{.{.{.{.{.{.{.{.{.{.{.{.F rXrXuXqX#XL./.U.F.7.H f 3 - * - = O O O = * * o X o o > O o O = w y = * = 2 w = q X r W Q ' ( E {.{.{.{.{.{.{.{.",
"{.{.{.{.{.{.{.{.{.{.{.{.{.G rXrXrXqX(.U.U.G.F.h.7.m i 7 y y = o o o & o o o o o o O o * O O = = O & = = 1 p 7 i w Y i J ( A.{.{.{.{.{.{.{.{.",
"{.{.{.{.{.{.{.{.{.{.{.{.{.-XtXiXrXqX)./.).R.F.F.f.| n M = = O % * o o o o o o X X o X o X   X o o O O O > h e f Z z p , V [ {.{.{.{.{.{.{.{.",
"{.{.{.{.{.{.{.{.{.{.{.{.  tXtXtXtX-X@XR.U.U.F.F.F.j.7.L V r = o o o o o O o * o o o o o X o o o o o o o o 2 p 2 B R I I N d.{.{.{.{.{.{.{.{.",
"{.{.{.{.{.{.{.{.{.{.{.{.^ .XZ.<.x.x.l.l.L.U.P.F.F.G.j.8.&.J e 1 * = * & O = = = + { | { 2 & * * o o o o o w - f Y ~ f B J A.{.{.{.{.{.{.{.{.",
"{.{.{.{.{.{.{.{.{.{.{.{.}.l Z ' d.A.s.s.z.L.P.U.U.U.F.F.f.} V Z d 7 e 1 , - = ( :X,X].'.<X< * o o * o % X X > u M f I B b -X{.{.{.{.{.{.{.{.",
"{.{.{.{.{.{.{.{.{.{.{.{.j d R S.R.L.z.f.l.z.L.G.U.P.P.P.F.7.K b J h b 9 m n 4.!.i.1.1.0.m.<X( & : & * o o o o = - R h B N x.{.{.{.{.{.{.{.{.",
"{.{.{.{.{.{.{.{.{.{.{.{.  Q _ l.e.f.z.j.C.F.U.F.R.W.W.W.U.h.K E G Q ( ` 2.U.:X1.1.0.H.v.m.'.9Xd = & X : : o o y & f M 8 b .X{.{.{.{.{.{.{.{.",
"{.{.{.{.{.{.{.{.{.{.{.{.  d.` &.A.7.| 8.z.U.R.).).).Q.).P.z.*.} K ( { 6.J.+Xv.D P P.3XE.m.'.eXA u y w > * ; * : * = z u m %.{.{.{.{.{.{.{.{.",
"{.{.{.{.{.{.{.{.{.{.{.{.  oX( h M = 3 A F.#X%X#X#X>X).W.W.G.s.O.[ 2.9.r.Q.!.v.) 0.3XwX`.u.'.eXA q q u q & o o & * & p w a W {.{.{.{.{.{.{.{.",
"{.{.{.{.{.{.{.{.{.{.{.{.6 %X8.4.A.B =.` @X5X5X1X%X#X#X).W.P.k.7.| 0.i.c.H.Q.W.4.>X4X4X].u.:XeXK z l > w > o % X % & d d i I {.{.{.{.{.{.{.{.",
"{.{.{.{.{.{.{.{.{.{.{.. oXR.k.z.s.XX8.).6X1X1X1X1X#X#X_.W.P.F.z.g.c.v.c.c.H.K.P D 1.m.wXN.].<X( Z l C q * o & & o o 7 , h r {.{.{.{.{.{.{.{.",
"{.{.{.{.{.{.{.{.{.{.  #.&XOXR.%XOXR.=XrX7X1X1X%X1X+X_.Q.W.F.n.g.j.H.H.K.W.].0.0.P 1.E.,X`.eX'.O.' Z l 2 o : : o o & r Z Z = {.{.{.{.{.{.{.{.",
"{.{.{.{.{.{.{.{.{.  H 5X%X&X%X5XrXiXsXaX7X1X1X%X(.Q.E.E.G.F.j.j.n.H.K.W.7X,Xv P P v.iXwX'.4X:Xk.X.B 3 d : : > : 7 2 e E Q * {.{.{.{.{.{.{.{.",
"{.{.{.{.{.{.{.{.{.6 0XOX$X@X%XyXsXsXsXuX6X%X#X#X(.W.P.G.D.j.C.F.G.G.J.W.wX2X. D D 1.3X].`.<XE.z.=.G U d z : w & = h C K L   {.{.{.{.{.{.{.{.",
"{.{.{.{.{.{.{.{.# XX$XY.Y.T.OXqXsXiXyX7X=X(.(.R.W.G.P.G.n.F.z.f.C.D.P.W.7XK.4 1.:X,X,X`.4X4X!.P.&.E w w l w = e - C J P   {.{.{.{.{.{.{.{.{.",
"{.{.{.{.{.{.{.{.Z.$XY.T.XXk.M.7XiXyXyX6X1XR.R.P.P.F.G.G.n.z.F.F.j.L.D.H.(.1.D 9XwX4X].].:XE._.T.a.J d u Z w 2 z - f Q # {.{.{.{.{.{.{.{.{.{.",
"{.{.{.{.{.{.{.{.&XY.$X&XT.4.4.5XyX6XqX1X@X).U.F.G.n.F.D.F.n.j.n.j.w.c.c.D.H.3XpXpX4X'.'._.K.W.P.a.J f d d w > e e p Q   {.{.{.{.{.{.{.{.{.{.",
"{.{.{.{.{.{.{.{.q.8.7.k.k.1.1.5XyX7X5X@X#XU.J.F.n.F.F.F.n.n.f.j.z.8.r.e.c.7XwXpXwX<XQ.K.W.W.W.e.a.Y M z d r 1 e r f u   {.{.{.{.{.{.{.{.{.{.",
"{.{.{.{.{.{.{.{.# ] L 4.f.) ) yXyX6X6XOX(.U.U.F.g.n.n.F.F.g.f.6.j.1.e.9.9.>XwX9X].].r.m.Q.W.Q.z.a.b p r 7 f Z G B U w {.{.{.{.{.{.{.{.{.{.{.",
"{.{.{.{.{.{.{.{.{.  5 ] a.8.5XuXqX7X7X6XR.n.F.D.n.F.n.j.j.e.6.w.w.e.r.0.r.Q._.H.i.9.r.H.W.K.).R.l.M C h f M Z R 0   {.{.{.{.{.{.{.{.{.{.{.{.",
"{.{.{.{.{.{.{.{.{.{.{.g :.-XyXqX6X6X6X#XF.f.z.G.g.F.F.j.e.t.e.e.w.g.c.H.E.!.E.c.0.0.v.H.W.W.+X).S.E ~ I p R ' w   {.{.{.{.{.{.{.{.{.{.{.{.{.",
"{.{.{.{.{.{.{.{.{.{.  b A.-X6X6X@X#X).L.f.e.z.F.G.D.n.j.f.e.e.f.f.e.v.G.E.W.E.v.r.r.v.H.H.H.>X7X7.=.E ~ Q p ..  {.{.{.{.{.{.{.{.{.{.{.{.{.{.",
"{.{.{.{.{.{.{.{.{.{.  F a.^.^.).).G.j.e.w.f.C.G.F.D.D.j.j.f.e.f.g.g.v.b.H.r.H.v.c.c.H.W.H.W.>X3XoXl.=.X.Q G * {.{.{.{.{.{.{.{.{.{.{.{.{.{.{.",
"{.{.{.{.{.{.{.{.{.{.{.h S.S.V.V.D.g.e.6.6.f.j.G.G.C.F.C.f.g.g.e.g.g.g.v.b.v.b.v.c.H.K.W.H.!.>XwX6Xl.=.X.' Y O {.{.{.{.{.{.{.{.{.{.{.{.{.{.{.",
"{.{.{.{.{.{.{.{.{.{.{.  d.Y.7.s.f.e.e.2.8.t.C.F.U.C.B.j.C.j.f.t.f.r.g.v.v.c.c.c.b.H.K.H.H.Q.>X9X%Xl.,.a.X.r   {.{.{.{.{.{.{.{.{.{.{.{.{.{.{.",
"{.{.{.{.{.{.{.{.{.{.{.. $XqXL.f.8.e.6.6.w.j.C.C.C.j.F.j.V.w.8.| e.r.r.c.r.y.y.c.v.v.H.v.K.W.>X3X%Xs.M.l.X.* {.{.{.{.{.{.{.{.{.{.{.{.{.{.{.{.",
"{.{.{.{.{.{.{.{.{.{.{.$ z.f.8.j.e.6.6.6.e.j.C.I.I.I.I.j.j.w.t.6.e.9.e.r.9.e.e.c.c.D.H.c.H.W.>X9X7XY.Y.T.l.  {.{.{.{.{.{.{.{.{.{.{.{.{.{.{.{.",
"{.{.{.{.{.{.{.{.{.{.{.{.w 7.j.F.t.e.w.e.j.z.C.I.I.I.h.h.j.j.t.6.6.6.e.9.9.0.y.y.c.c.c.b.H.H.>X7X1XL.@XT.l.  {.{.{.{.{.{.{.{.{.{.{.{.{.{.{.{.",
"{.{.{.{.{.{.{.{.{.{.{.{.{.z U.j.h.w.f.j.D.F.h.V.h.q.w.t.t.f.w.6.5.6.6.6.9.e.y.c.c.v.c.H.K.W.!.3X%X%X@X%X/.{.{.{.{.{.{.{.{.{.{.{.{.{.{.{.{.{.",
"{.{.{.{.{.{.{.{.{.{.{.{.{.h @XI.F.h.f.j.B.j.s.q.7.s.5.6.5.2.5.2.2.2.2.6.e.e.y.c.c.c.c.c.H.H._._.7X1X1X).%X{.{.{.{.{.{.{.{.{.{.{.{.{.{.{.{.{.",
"{.{.{.{.{.{.{.{.{.{.{.{.{.h @X=X)./.C.f.h.w.q.7.s.@.5.5.5.5.2.@.@.2.5.6.r.r.y.c.c.c.p.p.H.Q._.7X2X1X1X#XU.o {.{.{.{.{.{.{.{.{.{.{.{.{.{.{.{.",
"{.{.{.{.{.{.{.{.{.{.{.{.{.x /.^./.I.s.7.{ *.-.*.*.} @.2.5.5.@.@.@.2.5.e.y.j.D.c.c.y.y.p.b.H.].7X7X>X1X+X9Xe {.{.{.{.{.{.{.{.{.{.{.{.{.{.{.{.",
"{.{.{.{.{.{.{.{.{.{.{.{.{.e d.S.oXl.[ _ } [ ] } L } *.@.2.2.@.@.2.5.e.j.j.c.D.D.D.y.p.p.c.K._.>X#X1X#X2X1X-.{.{.{.{.{.{.{.{.{.{.{.{.{.{.{.{.",
"{.{.{.{.{.{.{.{.{.{.{.{.{.. %.d.<.&.' J _ _ _ [ [ } ] @.| @.@.@.3.w.j.G.G.D.D.D.c.c.y.c.v.H._.,X1X1X1X#X>X-.{.{.{.{.{.{.{.{.{.{.{.{.{.{.{.{.",
"{.{.{.{.{.{.{.{.{.{.{.{.{.  . Z.=.' G E _ H _ K :.-.&.[ { { | @.3.t.F.J.G.G.D.j.c.c.y.c.c.H.W._.#XW.P.1X3X7.{.{.{.{.{.{.{.{.{.{.{.{.{.{.{.{.",
"{.{.{.{.{.{.{.{.{.{.{.{.{.{.    r F I F R R G E h J [ _ } @.@.@.w.j.J.J.G.G.D.j.c.y.y.c.p.b.W._.2X2X(.1X1XoX{.{.{.{.{.{.{.{.{.{.{.{.{.{.{.{.",
"{.{.{.{.{.{.{.{.{.{.{.{.{.{.{.{.{.{.{.{.{.{.{.{.  . ..] +.@.5.6.t.F.U.J.J.D.c.j.j.c.c.y.p.c.H.Q._.,X2X3X>X+XF {.{.{.{.{.{.{.{.{.{.{.{.{.{.{.",
"{.{.{.{.{.{.{.{.{.{.{.{.{.{.{.{.{.{.{.{.{.{.{.{.{.{.@ A.q.w.w.t.D.J.U.J.U.J.D.j.D.c.p.p.p.p.b.W.].,X,X,X2X4.;.{.{.{.{.{.{.{.{.{.{.{.{.{.{.{.",
"{.{.{.{.{.{.{.{.{.{.{.{.{.{.{.{.{.{.{.{.{.{.{.{.  >.;XsXV.h.h.j.G.~.U.U.U.J.G.j.j.j.y.p.p.p.b.K._.,X>X_.8.z c   {.{.{.{.{.{.{.{.{.{.{.{.{.{.",
"{.{.{.{.{.{.{.{.{.{.{.{.{.{.{.{.{.{.{.{.{.{.{. XlXlXlXfXoXI.I.F.G.~.~.~.J.F.B.t.j.D.c.y.p.p.c.H.W.].>X8.l u C |.{.{.{.{.{.{.{.{.{.{.{.{.{.{.",
"{.{.{.{.{.{.{.{.{.{.{.{.{.{.{.{.{.{.{.{.  / dXlXkXjXlXlXsX/.~.U.~.).).~.U.F.B.j.D.j.D.p.c.c.c.b.K.].{ e w y k u   {.{.{.{.{.{.{.{.{.{.{.{.{.",
"{.{.{.{.{.{.{.{.{.{.{.{.{.{.{.{.{.{.{.  <.jXlXkXhXlXlXjXdXrX).(.(.(.).~.~.G.F.j.D.D.D.c.D.c.c.p.D.H w t y u u c o   {.{.{.{.{.{.{.{.{.{.{.{.",
"{.{.{.{.{.{.{.{.{.{.{.{.{.{.{.{.{.o / fXjXkXkXhXkXzXjXdXdXfX=X@X*X#X(.(.U.F.B.j.j.D.D.D.D.c.p.e.G 0 ; t t t k -.d     {.{.{.{.{.{.{.{.{.{.{.",
"{.{.{.{.{.{.{.{.{.{.{.{.{.{.{.{./ ;XfXzXhXlXfXjXzXjXfXdXjXkXtX@X*X*X(.).U.C.C.j.B.D.D.D.c.j.6.h ; ; % y t t h 7X-X    {.{.{.{.{.{.{.{.{.{.{."
};
