/* XPM */
static char *f962111808a64a3ffb8de998f08aeca7UlXKCBtUHUCt8yd7[] = {
/* columns rows colors chars-per-pixel */
"32 32 12 1 ",
"  c None",
". c black",
"X c #845627",
"o c #BC7D3C",
"O c #95993C",
"+ c #D6DC39",
"@ c #A6835F",
"# c #E9EF51",
"$ c #C1C2AE",
"% c #CFD0C0",
"& c #E4E4DB",
"* c #EBEBDD",
/* pixels */
"                                ",
"                                ",
"               ooXXXXXXXX       ",
"              XXooXXXXXXXX      ",
"             @@@@@@@@@@@@@@     ",
"             @@@@@@@@@@@@@@     ",
"            oXXXXXXXXXXXXXXX    ",
"         XXooXXXXXXXXXXXXXXXXXX ",
"          +++++++####++++++++   ",
"         +++++++##**#+++++++$$  ",
"        ++++++++#*..*O+++++++%  ",
"       ++++++++++OOOO+++++++$&  ",
"      ++++++++++++++++++++      ",
"     OO++++++++++++++++++O      ",
"     O+++++++++++++++++OO       ",
"     O+++++++++++++++OO         ",
"    OO++++++++++++++OO          ",
"    OO++++++++++++OO            ",
"    OO++++++++++++O             ",
"    OO++++++++++++##            ",
"    OO+++++++++++++###          ",
"    OO+++++++++++++++###        ",
"    OOO+++++++++++++++###       ",
"     OO++++++++++++++++++##     ",
"     OO+++++++++++++++++++##    ",
"      OOO+++++++++++++++++++    ",
"       OOOO+++++++++++++        ",
"          OOOOOOO+++++          ",
"                                ",
"                                ",
"                                ",
"                                "
};
