/* XPM */
static char *da4eabde52ad42a1ec029e01cc22532cCgNGxLH5kPj0dmV9[] = {
/* columns rows colors chars-per-pixel */
"70 70 239 2 ",
"   c #020202",
".  c #0B0A07",
"X  c #0D0C0B",
"o  c #110F0D",
"O  c #13100E",
"+  c #1A1715",
"@  c #231A16",
"#  c #251A15",
"$  c #2B1E15",
"%  c #291E1A",
"&  c #2A221A",
"*  c #2D221C",
"=  c #32251B",
"-  c #37271C",
";  c #39261D",
":  c #35291E",
">  c #262120",
",  c #2A2522",
"<  c #2D2A26",
"1  c #322521",
"2  c #352A23",
"3  c #3B2D24",
"4  c #352D29",
"5  c #392D29",
"6  c #3C3126",
"7  c #3E322A",
"8  c #3B3833",
"9  c #452D23",
"0  c #423126",
"q  c #42352C",
"w  c #4B352A",
"e  c #43392E",
"r  c #4C3B2D",
"t  c #53372A",
"y  c #5B3B2C",
"u  c #433632",
"i  c #453B33",
"p  c #4A3D33",
"a  c #403D39",
"s  c #493D39",
"d  c #563E32",
"f  c #673A31",
"g  c #4C4236",
"h  c #45423B",
"j  c #4D433B",
"k  c #544234",
"l  c #5B4636",
"z  c #5A4834",
"x  c #52453C",
"c  c #54493D",
"v  c #5C4A3D",
"b  c #644334",
"n  c #694738",
"m  c #64493B",
"M  c #6B4B3C",
"N  c #774A3D",
"B  c #74523F",
"V  c #4E4D47",
"C  c #514340",
"Z  c #544B42",
"A  c #5A4C43",
"S  c #5C4E49",
"D  c #5B5146",
"F  c #5D534B",
"G  c #674E42",
"H  c #774D42",
"J  c #645145",
"K  c #6D5143",
"L  c #63534A",
"P  c #69584C",
"I  c #745444",
"U  c #7A5444",
"Y  c #775949",
"T  c #7B5B4B",
"R  c #655B55",
"E  c #6A5C53",
"W  c #795F53",
"Q  c #7B614C",
"!  c #6C6256",
"~  c #6D635A",
"^  c #726356",
"/  c #786657",
"(  c #7B6B5E",
")  c #7A6D63",
"_  c #7A746A",
"`  c #884E47",
"'  c #88574B",
"]  c #825D4B",
"[  c #895D52",
"{  c #935E52",
"}  c #84614E",
"|  c #89624E",
" . c #846453",
".. c #8A6554",
"X. c #856A57",
"o. c #8D6C5C",
"O. c #976657",
"+. c #946C5A",
"@. c #9D6B5B",
"#. c #8A715D",
"$. c #93725D",
"%. c #9B725E",
"&. c #A26C5D",
"*. c #A0765E",
"=. c #826E64",
"-. c #8D6E61",
";. c #9E6A60",
":. c #897567",
">. c #947562",
",. c #9C7562",
"<. c #957B64",
"1. c #9B7B64",
"2. c #937A6C",
"3. c #9D7C6B",
"4. c #887C72",
"5. c #987D71",
"6. c #A66E63",
"7. c #A37563",
"8. c #A87566",
"9. c #A47B65",
"0. c #AC7A66",
"q. c #A47C69",
"w. c #AB7D6A",
"e. c #B3786B",
"r. c #A27F71",
"t. c #B87D74",
"y. c #93836C",
"u. c #9D846E",
"i. c #8D8477",
"p. c #988677",
"a. c #A78368",
"s. c #A4846B",
"d. c #AC836D",
"f. c #AD8B6D",
"g. c #B3836D",
"h. c #B8846D",
"j. c #B48A6E",
"k. c #B98A6F",
"l. c #A38571",
"z. c #AC8574",
"x. c #A58D74",
"c. c #AD8A74",
"v. c #AA8B7A",
"b. c #B28573",
"n. c #B68476",
"m. c #B58B74",
"M. c #BB8C73",
"N. c #B38D7A",
"B. c #BB8D7A",
"V. c #A89376",
"C. c #AD947D",
"Z. c #BC9175",
"A. c #B4937B",
"S. c #B7977A",
"D. c #BC947B",
"F. c #BCA17F",
"G. c #C28B7C",
"H. c #C19376",
"J. c #C3957C",
"K. c #C9927E",
"L. c #C49A7E",
"P. c #90C846",
"I. c #979288",
"U. c #A89487",
"Y. c #BB9581",
"T. c #BB9B83",
"R. c #B89985",
"E. c #B4978D",
"W. c #BAA38A",
"Q. c #ABA397",
"!. c #B7A696",
"~. c #B9B2A8",
"^. c #C88E84",
"/. c #C29482",
"(. c #CA9586",
"). c #C39C84",
"_. c #CB9C83",
"`. c #C49C8A",
"'. c #CB9D8B",
"]. c #D19C89",
"[. c #C89E92",
"{. c #D49D92",
"}. c #C3A487",
"|. c #CCA285",
" X c #C4A38B",
".X c #CBA48C",
"XX c #CDAA8C",
"oX c #D0A487",
"OX c #D1A68A",
"+X c #D3AA8C",
"@X c #CCB18D",
"#X c #D0B48F",
"$X c #CDA392",
"%X c #C5A895",
"&X c #CCAB93",
"*X c #D3A394",
"=X c #D3AD92",
"-X c #D8A996",
";X c #D2AC9B",
":X c #CDB393",
">X c #CDB59A",
",X c #D5B294",
"<X c #D8B496",
"1X c #D3B49B",
"2X c #DBB59C",
"3X c #D5BB9C",
"4X c #DABB9D",
"5X c #E1B39C",
"6X c #C6B6A6",
"7X c #CCB9A4",
"8X c #CABBAA",
"9X c #D0B1A7",
"0X c #DAB6A4",
"qX c #D5BDA2",
"wX c #DCBCA2",
"eX c #D7B8A8",
"rX c #E2BDA5",
"tX c #E1BFA8",
"yX c #BEC1B4",
"uX c #D9C19D",
"iX c #CBC2AF",
"pX c #DCC1A5",
"aX c #DEC3AA",
"sX c #CDC8B7",
"dX c #D8C6B9",
"fX c #E1C1A6",
"gX c #E3C3AC",
"hX c #E6C8B6",
"jX c #DBCDC1",
"kX c #DAD5C6",
"lX c #DEDFD0",
"zX c #E3CFC2",
"xX c #E5D5CA",
"cX c #E5DBD3",
"vX c #E7E6D8",
"bX c #F1E7DD",
"nX c #EBEEE2",
"mX c #EDF1E5",
"MX c #F3F4EA",
/* pixels */
"P.P.P.P.P.P.P.P.P.P.P.P.P.P.P.P.P.P.P.P.P.P.P.P.P.P.P.P.P.P.P.P.P.P.P.P.>   >   + X P.P.P.P.P.P.P.P.P.P.P.P.P.P.P.P.P.P.P.P.P.P.P.P.P.P.P.P.",
"P.P.P.P.P.P.P.P.P.P.P.P.P.P.P.P.+ > 4 4 8 %     P.P.X i >   > >         > p x C L F j > X P.P.P.P.P.P.P.P.P.P.P.P.P.P.P.P.P.P.P.P.P.P.P.P.P.",
"P.P.P.P.P.P.P.P.P.P.P.P.P.P.  i p F F ) ~ P Z i 4 O Z p k 0 = = = 0 3 3 7 e 3 3 C A S R R 8   P.P.P.P.P.P.P.P.P.P.P.P.P.P.P.P.P.P.P.P.P.P.P.",
"P.P.P.P.P.P.P.P.P.P.P.P.P.  1 D F Z ~ A R E F A A x p 0 3 7 = = : 3 e 3 0 q 7 q s q s S L C A u . P.P.P.P.P.P.P.P.P.P.P.P.P.P.P.P.P.P.P.P.P.",
"P.P.P.P.P.P.P.P.P.P.P.P.P.O c Z g F F ! L ! A c x p e 0 0 3 = 3 3 0 3 3 0 3 3 e 2 7 j u q p p A p &   P.P.P.P.P.P.P.P.P.P.P.P.P.P.P.P.P.P.P.",
"P.P.P.P.P.P.P.P.P.P.P.P.P.j c q i Z F R D c c r g g p 6 3 = = 0 7 q 0 7 3 3 2 3 3 7 3 3 i q 7 u p x i + P.P.P.P.P.P.P.P.P.P.P.P.P.P.P.P.P.P.",
"P.P.P.P.P.P.P.P.P.P.P.P.P.Z 2 q i j F j x p D : 3 p 7 q 6 = = 3 7 0 p q q 2 * 2 3 i 7 q 3 1 5 7 q e v x X P.P.P.P.P.P.P.P.P.P.P.P.P.P.P.P.P.",
"P.P.P.P.P.P.P.P.P.P.P.  & F x Z j D i D g e g = q p 7 7 = = 2 i 7 7 7 7 2 % 1 2 q 5 5 2 2 1 1 2 3 3 d v L P.P.P.P.P.P.P.P.P.P.P.P.P.P.P.P.P.",
"P.P.P.P.P.P.P.P.P.P.  , ~ _ R Z D Z j j 6 7 : * 2 6 7 3 3 2 7 i 7 q 3 3 = % * 5 2 3 2 % * * * * 2 3 i c J < P.P.P.P.P.P.P.P.P.P.P.P.P.P.P.P.",
"P.P.P.P.P.P.P.P.P.P.O _ 4.F ~ D Z c p 2 7 : * = = = = 7 2 * 2 # 3 7 2 = # @ 2 7 2 * # * % % * 1 2 2 u A J ^ P.P.P.P.P.P.P.P.P.P.P.P.P.P.P.P.",
"P.P.P.P.P.P.P.P.P.P.R ) R Z A i j 7 = = = = * : 3 = = 6 7 3 2 * $ 2 3 * * 2 = & @ # # # % * * 1 2 q p p P ( < P.P.P.P.P.P.P.P.P.P.P.P.P.P.P.",
"P.P.P.P.P.P.P.P.P.P.U.i.~ x q 3 = 3 * = = = $ = 3 ; : ; 6 3 : $ 2 3 $ * * = * $ # @ # # % * 1 2 3 u i p P ( u P.P.P.P.P.P.P.P.P.P.P.P.P.P.P.",
"P.P.P.P.P.P.P.P.P.a u.^ P g 3 7 = = $ = = 3 ; 0 3 3 ; 0 0 3 0 3 k 0 0 ; 3 ; 0 - # # # @ # % * 2 5 u p x J =.j P.P.P.P.P.P.P.P.P.P.P.P.P.P.P.",
"P.P.P.P.P.P.P.P.P.E ^ E c 7 3 : = * = = 6 r k v v m v k G m m I B I B I I I M n d 0 = % # % , 1 2 i u A E U.Z P.P.P.P.P.P.P.P.P.P.P.P.P.P.P.",
"P.P.P.P.P.P.P.P.  x ! D 7 2 : = : = 3 g P / #.<.$.<.>.>.q.1.a.a.9.9.a.*.%.@.O.| I M d 9 = % # 2 4 u i S ^ U.( . P.P.P.P.P.P.P.P.P.P.P.P.P.P.",
"P.P.P.P.P.P.P.P.X i F i : = = & : 3 r X.c.W. X}.}.D.S.D.D.D.Z.g.j.j.k.Z.g.g.9.7.$. .I d w = # % 1 q s S E 2.y.O P.P.P.P.P.P.P.P.P.P.P.P.P.P.",
"P.P.P.P.P.P.P.P., ! F g 2 = = = : z 1.XX1XwX4X,XXX+X+X|.J.L.L.|.|.L.H.H.M.H.j.g.w.,...I m 9 * % * 4 u p L =.p.+ P.P.P.P.P.P.P.P.P.P.P.P.P.P.",
"P.P.P.P.P.P.P.P.< D j i 2 & = : 0 u.3XaXaXpX,XXX+X+XXX.XL.oXJ.H.H.H.M.M.M.H.M.g.g.w.%...Y d 1 & * % u g L ^ p.Z P.P.P.P.P.P.P.P.P.P.P.P.P.P.",
"P.P.P.P.P.P.P.P.4 c c i = = $ = v 1XgXhXwX4X,X<X<XOX|.L.M.g.k.oX_.H.Z.Z.H.k.M.k.g.9.9.,...G 0 * & * 2 p L ^ 2.:.P.P.P.P.P.P.P.P.P.P.P.P.P.P.",
"P.P.P.P.P.P.P.P.& g q e 6 * * 3 }.aXaXpXwX4X<X=XL.M.k.M.+X+X|.|.H.Z.Z.k.j.g.g.d.d.d.9.,.,.T w 1 4 % 7 u v ) 5.U.X P.P.P.P.P.P.P.P.P.P.P.P.P.",
"P.P.P.P.P.P.P.P.& q j e 3 : : e >XaXpX3X4X=X=XXX=X<XOX|.L.H.J.L.H.Z.H.Z.Z.D.Z.m.g.g.d.,.$.} d 3 & , 2 u c ( =.:.P P.P.P.P.P.P.P.P.P.P.P.P.P.",
"P.P.P.P.P.P.P.P.+ q i 7 7 6 6 D wXaXpX4X4X4X4XOX|._.|.OX|.|.OX|.|.OX|._.L._.L.D.D.B.m.d.q.o.l 3 % 2 4 7 c ^ =.:.)   P.P.P.P.P.P.P.P.P.P.P.P.",
"P.P.P.P.P.P.P.P.O 7 = 2 e j p v pXaXaXwXpX<X|.|.+X<X=X=X+X|.+X+XOX|..XOX|.Y.B.m.m.b.N.).z.+.I 3 1 2 2 s i E / :.( O P.P.P.P.P.P.P.P.P.P.P.P.",
"P.P.P.P.P.P.P.P.  # 6 6 i c F / qXpXaXpXpX4X,X+X+X+X,X,X,X=X+X.X+X.X).m.l.o.W / W X.-.Y.N.3.T p 2 4 2 u i F ) 2.U.Z P.P.P.P.P.P.P.P.P.P.P.P.",
"P.P.P.P.P.P.P.P.P.. 7 7 7 g A E 3XwXpXpXpXwX<X+X=XXX=X=X=X.X.X).'.c.+.Y G 9 3 3 3 e d P 3.z.X.G 2 5 5 s s Z =.4.E.Z P.P.P.P.P.P.P.P.P.P.P.P.",
"P.P.P.P.P.P.P.P.P.P.i 7 2 i p J :X4XpXpXpXaX1X1X X&X/./..X'.).D.z.X.t w 3 3 3 ; ; J P J J 2.r.P q 2 5 i j j E =./ ~ . P.P.P.P.P.P.P.P.P.P.P.",
"P.P.P.P.P.P.P.P.P.P.@ i i q q r :X4XwXpXqX>Xo.u.<.1.c.B.)./.b.,.X.K w w w k m  .+.,.3.r.v.5.v.o.p 5 7 u i u S ( :.8   P.P.P.P.P.P.P.P.P.P.P.",
"P.P.P.P.P.P.P.P.P.P.. 4 7 6 6 r :X3XqXqXW.X.v P l K o.q.D.m.,.T K b b M I I  ...+.@.7.z.R.%XW.v.J 7 7 i s Z ( v.p.  P.P.P.P.P.P.P.P.P.P.P.P.",
"P.P.P.P.P.P.P.P.P.P.P.. 8 e 7 p 3XpX7XW.=.q 0 r r d I >.b.g.+.o.m M T T U ] |  .+.+.+.9.N.[.9X%Xp.S i s u A =.W.2 P.P.P.P.P.P.P.P.P.P.P.P.P.",
"P.P.P.P.P.P.P.P.P.P.P.P.P.+ Z c 7X!.i.^ q ; 3 r l K T $.m.9.,.o.T T U B B U ] O.%.z.q.7.q.R.%XeX!.E L A E :.u.C.X P.P.P.P.P.P.P.P.P.P.P.P.P.",
"P.P.P.P.P.P.P.P.P.P.P.P.P.P.+ 4.U.( ^ c l y l M M ] o.c.Y.d.w.,. .B n n n U ..%.9.w.z.E.z.Y.9XdXdX4.4.5.E.A L 7 P.P.P.P.P.P.P.P.P.P.P.P.P.P.",
"P.P.P.P.P.P.P.P.P.P.P.P.P.P.P.O W.x.V.#.Y b n b b n } Y. Xc.B.,.I b y y n I o.Q b K 5.9XN.Y.9XdXdXU.W.t.[..   P.P.P.P.P.P.P.P.P.P.P.P.P.P.P.",
"P.P.P.P.P.P.P.P.P.P.P.P.P.P.P.P.W.&X}.c.1.} M y y b U }.<X_.(.,.B b y t t d = = ; ~ L P +.Y.%XdXxXE.$XB.(.> P.P.P.P.P.P.P.P.P.P.P.P.P.P.P.P.",
"P.P.P.P.P.P.P.P.P.P.P.P.P.P.P.P._  XT.C.#.l w t y b $.;X5X-X_.h.U b b t t =.; ; 3 =. .U.w.N.&XdXxXE.$X[.(.  P.P.P.P.P.P.P.P.P.P.P.P.P.P.P.P.",
"P.P.P.P.P.P.P.P.P.P.P.P.P.P.P.P.h W.#.J v 3 3 0 t M d.gX2X5X].G.7.B t t y n b I m I ,.c.9.m./.eXxXhXw.Y.t.  P.P.P.P.P.P.P.P.P.P.P.P.P.P.P.P.",
"P.P.P.P.P.P.P.P.P.P.P.P.P.P.P.P., C.^ =.:.k K n I  .R.hXrX-X_.*XG.w.[ y y n H I U ..O.O.9.B.'.9XzXzX6.8.`.  P.P.P.P.P.P.P.P.P.P.P.P.P.P.P.P.",
"P.P.P.P.P.P.P.P.P.P.P.P.P.P.P.P.F >XW.s.$.o.] ] >.A.wXhXrX-X].*X{./.g.@. .] ] ] ] ..7.9.g.D.`.eXhXdX8.@.'.  P.P.P.P.P.P.P.P.P.P.P.P.P.P.P.P.",
"P.P.P.P.P.P.P.P.P.P.P.P.P.P.P.P.I.pX3X%XA.A.c.N.T.wXgXgXrX-X].].*X{.B./.g.0.0.9.w.w.g.M.Z.)..XeXdXdXn.6.;X  P.P.P.P.P.P.P.P.P.P.P.P.P.P.P.P.",
"P.P.P.P.P.P.P.P.P.P.P.P.P.P.P.P.!.aXaXpXqX1X&XwXgXfXfXhX2X].].'.;X;X$X/.h.g.h.M.M.M./.Z.J.'.1X0XhXdX0.`./.  P.P.P.P.P.P.P.P.P.P.P.P.P.P.P.P.",
"P.P.P.P.P.P.P.P.P.P.P.P.P.P.P.P.qXaXaXgXaXwXwXgXgXtXtXhX5X].'.;XeX;X`.B.g.w.g.h.M.H.J.J.)..X;XeXdXdX7.`.$X  P.P.P.P.P.P.P.P.P.P.P.P.P.P.P.P.",
"P.P.P.P.P.P.P.P.P.P.P.P.P.P.P.P.7XpXpXaXaXaXgXtX2X2XtXhX-X].{.9X;X'.`.B.0.8.0.g.M.M.J.J.'.-X;X0XeXeXm.D.$X  P.P.P.P.P.P.P.P.P.P.P.P.P.P.P.P.",
"P.P.P.P.P.P.P.P.P.P.P.P.P.P.P.P.U.qXqX1XwXwXtXwXwX,XgXhXOX(.(.].(.(.{.B.@.@.8.0.0.g.M.D./.$XhX0X0XeXB.Y.:.P.P.P.P.P.P.P.P.P.P.P.P.P.P.P.P.P.",
"P.P.P.P.P.P.P.P.P.P.P.P.P.P.P.P., qXwX3X4XtXtXwX<X2XgXgX].K.(.;X;X*X;X*X8.O.&.8.w.g.M.m./..X;X0X0X0X-.S . P.P.P.P.P.P.P.P.P.P.P.P.P.P.P.P.P.",
"P.P.P.P.P.P.P.P.P.P.P.P.P.P.P.P.+ >X4X3X4XtXtXtX2XtX0X2X(.M./.`.B.B./.{.8.O.&.0.g.0.g.m.B.).&X1X1X0XO   P.P.P.P.P.P.P.P.P.P.P.P.P.P.P.P.P.P.",
"P.P.P.P.P.P.P.P.P.P.P.P.P.P.P.P.. ^ 3X4X4XfXfXtXrX=X.X'.G.g.B.B.9 f @.e.@.&.7.0.g.m.m.g.m./.&X&X&X;XP.P.P.P.P.P.P.P.P.P.P.P.P.P.P.P.P.P.P.P.",
"P.P.P.P.P.P.P.P.P.P.P.P.P.P.P.P.P.c 1X4XwXfXtXgXwXM.' z.m.w.n.[ U n ' { 6.8.8.8.w.M.J.D./.)..X`. X) P.P.P.P.P.P.P.P.P.P.P.P.P.P.P.P.P.P.P.P.",
"P.P.P.P.P.P.P.P.P.P.P.P.P.P.P.P.P.& R.wXwXfXgXgXtX$Xz.`.m.9.+.Y I Y U +.@.7.0.7.0.m./..X.X.X).)..X, P.P.P.P.P.P.P.P.P.P.P.P.P.P.P.P.P.P.P.P.",
"P.P.P.P.P.P.P.P.P.P.P.P.P.P.P.P.P.  y.4XpXfXfXgXwXR.l.l.>.| M K b M n ..7.w.%.+.+.0.J.2X.X).D.D.&XO P.P.P.P.P.P.P.P.P.P.P.P.P.P.P.P.P.P.P.P.",
"P.P.P.P.P.P.P.P.P.P.P.P.P.P.P.P.P.P.8 &X4XpXfXtX1XC.R.l.X.M t I I I H T U ..| ]  .+.b..X.X/. XT.W.o P.P.P.P.P.P.P.P.P.P.P.P.P.P.P.P.P.P.P.P.",
"P.P.P.P.P.P.P.P.P.P.P.P.P.P.P.P.P.P.P.p.1X1XwX:X Xl.C.l.o.b K  .T I T T T  ... .T $.7..X.X X X`.( . P.P.P.P.P.P.P.P.P.P.P.P.P.P.P.P.P.P.P.P.",
"P.P.P.P.P.P.P.P.P.P.P.P.P.P.P.P.P.P.P.+ %X&XW.u.1.s.x.s.o.I  .q.z.q.7.,.,.+.<.X.I Y 9.=XT.T. X&XZ P.P.P.P.P.P.P.P.P.P.P.P.P.P.P.P.P.P.P.P.P.",
"P.P.P.P.P.P.P.P.P.P.P.P.P.P.P.P.P.P.P.  P C.C.x.C.A.A.D.m.n.n./.&.{ { { { ..H [ ....c.=XT.T.R.R.8 P.P.P.P.P.P.P.P.P.P.P.P.P.P.P.P.P.P.P.P.P.",
"P.P.P.P.P.P.P.P.P.P.P.P.P.P.P.P.P.P.P.P.4 x.x.A.N.m.b.7.@.@.@.' ` N H N N ` 8.8.q.q.`..XA.T. X=.. P.P.P.P.P.P.P.P.P.P.P.P.P.P.P.P.P.P.P.P.P.",
"P.P.P.P.P.P.P.P.P.P.P.P.P.P.P.P.P.P.P.P.  y.c.`.B.;.O.{ @.' N f ` ' { @.8.8.w.b.m.D.,X.XT.&X`.& P.P.P.P.P.P.P.P.P.P.P.P.P.P.P.P.P.P.P.P.P.P.",
"P.P.P.P.P.P.P.P.P.P.P.P.P.P.P.P.P.P.P.P.P.j >X X0X-X{.{.t.e.e.^.t.t.t.t.n.b.d.m.`. X,X XA. X1XX P.P.P.P.P.P.P.P.P.P.P.P.P.P.P.P.P.P.P.P.P.P.",
"P.P.P.P.P.P.P.P.P.P.P.P.P.P.P.P.P.P.P.P.P.P.C. X'.-X-X-X^.G.G.^.G.e.8.6.e.9.d.D.)..X,XY. X X,X+ P.P.P.P.P.P.P.P.P.P.P.P.P.P.P.P.P.P.P.P.P.P.",
"P.P.P.P.P.P.P.P.P.P.P.P.P.P.P.P.P.P.P.P.P.P.g T.L.G.(.^.t.e.e.e.6.&.&.w.q.7.b.D.`.&X&XT.R. X,Xg P.P.P.P.P.P.P.P.P.P.P.P.P.P.P.P.P.P.P.P.P.P.",
"P.P.P.P.P.P.P.P.P.P.P.P.P.P.P.P.P.P.P.P.P.P.o @X}.A.m.e.6.@.O.[ [ ] | +.,.d.m.N.Y.;X&XR.T..X,X2.P.P.P.P.P.P.P.P.P.P.P.P.P.P.P.P.P.P.P.P.P.P.",
"P.P.P.P.P.P.P.P.P.P.P.P.P.P.P.P.P.P.P.P.P.P.X %X:XD.m.1. .M b n b I ] +.q.d.m.D. X XY. XD.|.,Xx.P.P.P.P.P.P.P.P.P.P.P.P.P.P.P.P.P.P.P.P.P.P.",
"P.P.P.P.P.P.P.P.P.P.P.P.P.P.P.P.P.P.P.P.P.P.. ( :XXX).f.1... .|  .O.@.7.w.d.b.m. XT.R.c.H.|.,XS.@ P.P.P.P.P.P.P.P.P.P.P.P.P.P.P.P.P.P.P.P.P.",
"P.P.P.P.P.P.P.P.P.P.P.P.P.P.P.P.P.P.P.P.P.P.P.j :X&X).S.B.b.7.9.,.%.9.q.d.d.c.N.l.u.o.m.L..X,X<X2.P.P.P.P.P.P.P.P.P.P.P.P.P.P.P.P.P.P.P.P.P.",
"P.P.P.P.P.P.P.P.P.P.P.P.P.P.P.P.P.P.P.P.  < V L R.:X,X=X|.D.d.w.9.q.%.d.d.d.c.z.3.2.a.m.).XX=X,Xl.D a P.P.P.P.P.P.P.P.P.P.P.P.P.P.P.P.P.P.P.",
"P.P.P.P.P.P.P.P.P.P.P.P.P.P.P.P.P.P.P.X I.sXp.D x.&X:X,X.XD.b.d.0.%.d.,.$.s.v.x.-.A.Z.Z.L.OX=X+X.XD i.i.a P.P.P.P.P.P.P.P.P.P.P.P.P.P.P.P.P.",
"P.P.P.P.P.P.P.P.P.P.P.P.P.P.P.P.P.P.  nXvXQ.c v :.W.C.&X=X).m.d.q.9.%.3.$.u.X.>.D.S.M.Z._.+X,XOX<.x ) dX8X~.P.P.P.P.P.P.P.P.P.P.P.P.P.P.P.P.",
"P.P.P.P.P.P.P.P.P.P.P.P.X 8 8 8 R ~.vXvXmXp.x m W.C.V.C.S.c.a.9.$.%.$.>.X.X.#.s.D.D.Z.Z._.OX+X|.Q s R jX8X8X~.V P.P.P.P.P.P.P.P.P.P.P.P.P.P.",
"P.P.P.P.P.P.P.P.P.P.< _ i.sXvXcXvXMXmXkXkX<.p z F.@X<.u.x.s.u.1.<.$.X.#.Q X.1.m.S.Z.m.D.|.XXXXS.J j _ !.6X8XdXbXI.R P.P.P.P.P.P.P.P.P.P.P.P.",
"P.P.P.P.P.P.P.P.V yXsXsXiXlXvXkXMXMXmXsX!.X.k r S.3XW.<.#.<.#.<.#.X.Y Q K 1.f.S.S.m.m.L.|.XX.Xs.p u ~.I.6X6X8XjXkXbX6X!.h P.P.P.P.P.P.P.P.P.",
"P.P.P.P.P.P.P.vXnXkXsXiXsXjXvXnXnXMXmXsXU.X.V.r x.3XuX3XV.l.<./ X.X.Q s.9.a.f.m.Z.j.j.D.}..X|. .q R ~.U.6X6X8XsXxXcXMXdX8XdXP.P.P.P.P.P.P.P.",
"P.P.P.P.P.P.P.vXlXkXvXiX8XsXjXvXMXmXmX8Xp.Y z k <.:XuX3X@X@XXXXXF.S.f.a.a.a.f.m.m.f.j.Z.}.|.).l q ~.Q.p.6X6X8XiXMXcXbXjX8X8XP.P.P.P.P.P.P.P.",
"P.P.P.P.P.P.P.mXjXkXvXsX8X8XdXcXMXnXmX~.y.z r B / :X3X3X#X@X@X@X}.S.f.f.f.f.f.f.f.f.j.S.L.}.f.r i _ R p.6X6X8XdXcXkXjXdX8X6XP.P.P.P.P.P.P.P."
};
