/* XPM */
static char *_a884108c1884e43f41b41c724b50bf6Gpq6C5KyhjVvHJoU[] = {
/* columns rows colors chars-per-pixel */
"70 70 246 2 ",
"   c #020202",
".  c #070806",
"X  c #0C0B0B",
"o  c #13120F",
"O  c #0B0E14",
"+  c #080F17",
"@  c #0D1215",
"#  c #07111A",
"$  c #0C141A",
"%  c #141415",
"&  c #1A1516",
"*  c #171A16",
"=  c #1C1916",
"-  c #13161A",
";  c #1A1719",
":  c #141A1D",
">  c #1C1B1C",
",  c #241817",
"<  c #231C1C",
"1  c #2A1E1D",
"2  c #25211D",
"3  c #2A211E",
"4  c #30201C",
"5  c #151B21",
"6  c #1B1F21",
"7  c #231F20",
"8  c #1C2124",
"9  c #192128",
"0  c #252323",
"q  c #2B2423",
"w  c #2B2926",
"e  c #232628",
"r  c #2B2728",
"t  c #25292A",
"y  c #2D2B2B",
"u  c #322624",
"i  c #332926",
"p  c #3A2B27",
"a  c #322C2B",
"s  c #3A2D2A",
"d  c #34312D",
"f  c #3B322D",
"g  c #3D382E",
"h  c #2D2E32",
"j  c #353232",
"k  c #3B3533",
"l  c #3D3A36",
"z  c #353539",
"x  c #3D3B3A",
"c  c #482618",
"v  c #422B26",
"b  c #42342E",
"n  c #42382D",
"m  c #433633",
"M  c #493635",
"N  c #433A34",
"B  c #4B3C34",
"V  c #443C3A",
"C  c #4A3D3A",
"Z  c #573D35",
"A  c #653A32",
"S  c #474338",
"D  c #43423C",
"F  c #4C423C",
"G  c #53453B",
"H  c #57483B",
"J  c #59503D",
"K  c #67473B",
"L  c #684D3A",
"P  c #3D4343",
"I  c #4C4641",
"U  c #4C4A44",
"Y  c #474948",
"T  c #524641",
"R  c #544B44",
"E  c #5D4A47",
"W  c #5B4C44",
"Q  c #534D49",
"!  c #555046",
"~  c #5C5246",
"^  c #55514B",
"/  c #5C544B",
"(  c #4D5454",
")  c #585854",
"_  c #624E44",
"`  c #654E48",
"'  c #7B4D42",
"]  c #665545",
"[  c #6B5444",
"{  c #63544B",
"}  c #6B554A",
"|  c #645A4B",
" . c #6C594C",
".. c #785748",
"X. c #745B4C",
"o. c #645B53",
"O. c #6B5C52",
"+. c #695B59",
"@. c #745D53",
"#. c #765D54",
"$. c #76614E",
"%. c #6D6354",
"&. c #65625A",
"*. c #6D665A",
"=. c #6B675C",
"-. c #766555",
";. c #7C6354",
":. c #7A6857",
">. c #74655B",
",. c #756A5C",
"<. c #786B59",
"1. c #7C6C5B",
"2. c #6A6E6A",
"3. c #746C65",
"4. c #7B6C61",
"5. c #7B7364",
"6. c #767268",
"7. c #865749",
"8. c #825E53",
"9. c #925E54",
"0. c #85634D",
"q. c #88624D",
"w. c #92604C",
"e. c #846553",
"r. c #8A6653",
"t. c #876954",
"y. c #8B6A54",
"u. c #846B5C",
"i. c #8C6C5B",
"p. c #916D56",
"a. c #936E5A",
"s. c #9A695A",
"d. c #84735E",
"f. c #8C715D",
"g. c #8A775C",
"h. c #97765B",
"j. c #94725C",
"k. c #9B745E",
"l. c #A86E59",
"z. c #A6735E",
"x. c #B2765F",
"c. c #886D62",
"v. c #996E63",
"b. c #827364",
"n. c #8C7263",
"m. c #8A7A67",
"M. c #957464",
"N. c #9C7661",
"B. c #937B66",
"V. c #9D7A64",
"C. c #96796A",
"Z. c #9C7C6B",
"A. c #867A74",
"S. c #9C7C72",
"D. c #A16968",
"F. c #A87765",
"G. c #A37C64",
"H. c #A47C6B",
"J. c #AC7D6B",
"K. c #B57A65",
"L. c #A77B73",
"P. c #AC7D71",
"I. c #B37C75",
"U. c #92816B",
"Y. c #9E816C",
"T. c #8E8473",
"R. c #88847B",
"E. c #948574",
"W. c #958974",
"Q. c #988877",
"!. c #9C8B75",
"~. c #A58165",
"^. c #AB8366",
"/. c #A4826B",
"(. c #AB846B",
"). c #A6896C",
"_. c #AD896D",
"`. c #B2846D",
"'. c #B9856E",
"]. c #B18A6D",
"[. c #A68372",
"{. c #AC8572",
"}. c #AC8A74",
"|. c #A88C76",
" X c #B28573",
".X c #B78677",
"XX c #B48B74",
"oX c #B98D75",
"OX c #B48D79",
"+X c #BA8D7B",
"@X c #A99378",
"#X c #B59375",
"$X c #BA9276",
"%X c #B5927B",
"&X c #BC937C",
"*X c #B59A7C",
"=X c #BC9A7C",
"-X c #C38B75",
";X c #C1957E",
":X c #C9937B",
">X c #C2997F",
",X c #D19D7E",
"<X c #C2A07F",
"1X c #90C846",
"2X c #98918E",
"3X c #A78781",
"4X c #A99A86",
"5X c #BC9482",
"6X c #B49886",
"7X c #BE9A84",
"8X c #B59B8E",
"9X c #BF9989",
"0X c #B7A488",
"qX c #B4A592",
"wX c #BFB39C",
"eX c #B9B2A6",
"rX c #C29682",
"tX c #CC9682",
"yX c #C49B84",
"uX c #CA9D85",
"iX c #C49D8A",
"pX c #CA9E8B",
"aX c #D39D88",
"sX c #C59F93",
"dX c #CAA086",
"fX c #C5A488",
"gX c #CCA28C",
"hX c #D3A48D",
"jX c #D2A78C",
"kX c #C7A795",
"lX c #CCA492",
"zX c #D2A592",
"xX c #D3AA93",
"cX c #D8AA95",
"vX c #DAAD9A",
"bX c #CDB799",
"nX c #D5B299",
"mX c #E1AD95",
"MX c #E4B59B",
"NX c #C8BBA4",
"BX c #D9B8A5",
"VX c #E7BAA4",
"CX c #D4C4A2",
"ZX c #D4CCB8",
"AX c #EDC2AD",
"SX c #E7CEB2",
/* pixels */
"1X1X1X1X1X1X1X1X1X1X1X1X1X1X1X1X1X1X1X1X1X1X1X1X1X1X  . q F 2 > 3 >.b.>.b._ +.d > & & & o X   1X1X1X1X1X1X1X1X1X1X1X1X1X1X1X1X1X1X1X1X1X1X1X",
"1X1X1X1X1X1X1X1X1X1X1X1X1X1X1X1X1X1X1X1X1X1X1X1X  0 O.W L X. . .H G H G V k F R  .b.#.4.+./ I F   1X1X1X1X1X1X1X1X1X1X1X1X1X1X1X1X1X1X1X1X1X",
"1X1X1X1X1X1X1X1X1X1X1X1X1X1X1X1X1X1X1X1X1X  X V 8X4X[ J H k r 0 a < k h ; 7 T { { R Q 3.W ~ W T F o   1X1X1X1X1X1X1X1X1X1X1X1X1X1X1X1X1X1X1X",
"1X1X1X1X1X1X1X1X1X1X1X1X1X1X1X1X1X1X  = m R O.o.R I f s V j a V I F S S n H C V R T V T T { F 4.{ { V % 1X1X1X1X1X1X1X1X1X1X1X1X1X1X1X1X1X1X",
"1X1X1X1X1X1X1X1X1X1X1X1X1X1X1X1X1X< U.U.-.~ b.F B ,.%.A.b.b.>.H H B i p r u f R u T r F V o.u m N C W R D   1X1X1X1X1X1X1X1X1X1X1X1X1X1X1X1X",
"1X1X1X1X1X1X1X1X1X1X1X1X1X1X1X& ! d.] 4.>.1.B N F m W p C I Q k y q i p T R m a r k a i b p i m G F F C F s 1X1X1X1X1X1X1X1X1X1X1X1X1X1X1X1X",
"1X1X1X1X1X1X1X1X1X1X1X1X1X1X& !.E.-.>.%.R R C p Q.m B O.O.N m p 3 W W V d V N r k I f ~ f a 1 m N C a m C { & 1X1X1X1X1X1X1X1X1X1X1X1X1X1X1X",
"1X1X1X1X1X1X1X1X1X1X1X1X1X= qX-.,.Q.R o.N f O.%.G { G N H G B ~ F f a 2 j q > > j q b G m 0 a B R 1 < a u ` +.. 1X1X1X1X1X1X1X1X1X1X1X1X1X1X",
"1X1X1X1X1X1X1X1X1X1X1X1X  !.!.m.G Q I / G n W W B f m p b f a 0 < 0 y r = 0 > > q C p m s < m >.r > > a k W >.V 1X1X1X1X1X1X1X1X1X1X1X1X1X1X",
"1X1X1X1X1X1X1X1X1X1X1X. O.NXQ.*.) 3.A._ %.F V k w e 6 j a r 0 0 y 0 0 % > > 7 r f N s I 0 k G C k r ; 7 7 p  .) 1X1X1X1X1X1X1X1X1X1X1X1X1X1X",
"1X1X1X1X1X1X1X1X1X1X  =.CX@X,.&.T.E.{ %.d y j 0 k N l y r x r r 0 0 > > < > < s p 0 > q m m +.a < s q , a u W T 1X1X1X1X1X1X1X1X1X1X1X1X1X1X",
"1X1X1X1X1X1X1X1X1X1X. qX@XF 0 m.Q.F d j a f H S k N k k y j z x x < 0 y s 2 q 0 > 0 & q N W C a 7 u f < < 3 H >.  1X1X1X1X1X1X1X1X1X1X1X1X1X",
"1X1X1X1X1X1X1X1X1X  %.0Xo.F U.b./ ^ U m S i N N F F a k k a k 0 y y r r r a = % > % < q p ~ 1 0 s T 1 V q u B R . 1X1X1X1X1X1X1X1X1X1X1X1X1X",
"1X1X1X1X1X1X1X1X1Xl CX@XR.wX5.S R 6.R o.F N l y r 0 0 0 > < 7 < r a s y y % % X % q q 3 f m u b H ` B u < u n R 0 1X1X1X1X1X1X1X1X1X1X1X1X1X",
"1X1X1X1X1X1X1X1X. <.CX>.qX1.d 6.{ *.G m y > y r y 0 j > r r y 0 N a a > % & < a > 3 < < b p { X...M.[.;.s u O.E.l 1X1X1X1X1X1X1X1X1X1X1X1X1X",
"1X1X1X1X1X1X1X1X= bXm.4Xd.F k *.~ R d y a j a y y k j y a 0 y r r 0 0 % & 0 & r 2 > > 1 f _ #.u.|.[.5X&Xu.s BXqX. 1X1X1X1X1X1X1X1X1X1X1X1X1X",
"1X1X1X1X1X1X1X1X2 NXU.m.%.Q T.*.U y j y k a a a y r r y a k y 0 > < w 0 0 0 p 0 & & q p W #.X.}.V.8.rXrXgXu._ w 1X1X1X1X1X1X1X1X1X1X1X1X1X1X",
"1X1X1X1X1X1X1X1XJ 0XE.4X3 S &.l &.^ R l l r 0 0 y r 0 y r > y > 7 ; 7 7 < < % & & 0 s a B } M.G.OX&X;XyXgX{.R   1X1X1X1X1X1X1X1X1X1X1X1X1X1X",
"1X1X1X1X1X1X1X1XSX] 0X~ 6.) j d d C V l x y y 0 a a V V k x 0 0 0 r > r < 7 < ; 0 u m N E } M./.{.+XuXuX;XyXeX1X1X1X1X1X1X1X1X1X1X1X1X1X1X1X",
"1X1X1X1X1X1X1Xw g.qX4X6.R.x Y U =.,.o.a 0 y 0 0 j x x j a a j a 0 0 j y 0 r < 0 u i f M } i.i.}.XXXX&X;XuXuXOX1X1X1X1X1X1X1X1X1X1X1X1X1X1X1X",
"1X1X1X1X1X1X1XT.!.!.T.) D U Q =.>./ Q d y y 0 y j k y y < k r y > r r s r < 1 q q u p G ;.{.OX/.XXrX&XyXgXgX{.. 1X1X1X1X1X1X1X1X1X1X1X1X1X1X",
"1X1X1X1X1X1X. b.4X4X=.t &.l &.W.4.F y t 0 > 0 0 < 0 r r r 0 0 < 0 a 0 0 q 0 u q 1 u B @.M. X{.%XOXXX5XlXiXkX9X= 1X1X1X1X1X1X1X1X1X1X1X1X1X1X",
"1X1X1X1X1X1X< m.m.| Q d S ^ 5.5.%.w y 0 0 > < 0 > r > > 0 0 < 1 s q & r r i q 0 i v K ;.H./.&XOXOXXX5XsX8X3XkXG 1X1X1X1X1X1X1X1X1X1X1X1X1X1X",
"1X1X1X1X1X1X3 B./ T.x 3.^ =.4X5.V U 0 > > j 0 0 ; % > > > & 0 u i < 0 < q m u u s M #.{.5XrX&X XOXH.3Xc.E E E >.  1X1X1X1X1X1X1X1X1X1X1X1X1X",
"1X1X1X1X1X1XS 0X~ Q ) S N N | U y y 0 > 0 0 - - > ; % - & 3 1 q , < < , s u , u Z i.Z.{. XrX&X&XH.e.c.A.3X#.C m h 1X1X1X1X1X1X1X1X1X1X1X1X1X",
"1X1X1X1X1X1XQ.W.A.I U 6.2Xo.w y t 8 > y @ + + % 0 % ; < 2 3 q < < < 1 p 1 < , ` Z.{.OX&X5XOXOXOXZ.S.6XxXxXsXS.+.2X1X1X1X1X1X1X1X1X1X1X1X1X1X",
"1X1X1X1X1X1XqX1.,.x F S ) ) j t 8 - > - $ + - 0 % > < & < q a < < 1 1 , q s H M.{.OX+X5X5X X+X[.L.9XsXlXpXiX[.#.A.1X1X1X1X1X1X1X1X1X1X1X1X1X",
"1X1X1X1X1X1XNXE.&.U | =.D j 8 : - 8 : - - % > - > < ; & < 1 1 i u f m b N { 1.C.}.+X5X5X5X5XOX[.OX5X+XrXrXrX[.u.3.1X1X1X1X1X1X1X1X1X1X1X1X1X",
"1X1X1X1X1X1XZXO.x 3.N x t t : 5 6 t - $ + - > % < u u b , 3 p b G { _ W W :.n.Y.OX5X5XiX5XOX5X9XiXrX+X.XpX5XH.S.b 1X1X1X1X1X1X1X1X1X1X1X1X1X",
"1X1X1X1X1X1XwX/ t U 6.x z 8 $ 5 8 $ - + + @ < K 7.s.F.+Xv.K [  .} } #._ _ #.c./.+X5X5XyX5XOX9XiXiX+XH.N.OX5Xv.H.>.1X1X1X1X1X1X1X1X1X1X1X1X1X",
"1X1X1X1X1X1X4Xf y y 2 8 h # # # - $ + + @ > `.-X-X-XtXtXtXcXOX{.M.X.;.} c.u.Y.Z.OX5X5XiXyX5XgXlXpXH.v < , p Z r.iX  1X1X1X1X1X1X1X1X1X1X1X1X",
"1X1X1X1X1X1X*.R > w 8 8 e # # 5 $ + + @ % a.hXrXXXuXlXF.' .XzXxX Xj.y.;.#.;.M.{. X&X&XyXyXyXiXlXpX{.X.4     8.9.J.{   1X1X1X1X1X1X1X1X1X1X1X",
"1X1X1X1X1X1Xy R 0 w 6 @ 8 # 9 : # - > ; < MXcX.X`.aXAXrX7.l.gXpXyXG.j.e.e.e.M.V. X$X$XrXiXrXiXpXgXrXs...} ..z.F.F..Xz 1X1X1X1X1X1X1X1X1X1X1X",
"1X1X1X1X1X1X2 F 8 0 : $ : # + $ @ % > > , VXvX'.x.,XAXvX+XF.pXyX&XJ.k.p.u.X.y.G. X+X+XrXyXpXyXrXyXyX&X{.H.z.J.J. X X+Xq   1X1X1X1X1X1X1X1X1X",
"1X1X1X1X1X1X= U $ > 8 $ 6 $ # $ - t > 0 u MXaXx.l.mXVXxX7.l.yXoXoXJ.k.p.e.M.M.{. X{.+X+XrXpXrXpXpXgXgX;X+XrX+X.X.XJ.P.P.q 1X1X1X1X1X1X1X1X1X",
"1X1X1X1X1X1X  a : e 8 # : : $ + - > 6 0 p uX:Xl.K.VXcXJ.7.F.oXK.XX(.k.a.#.y.a.H.{.OX X5X&XrX&XgXgXcXxXhXtXuXhX+XJ.J. X+X5XW . 1X1X1X1X1X1X1X",
"1X1X1X1X1X1X1Xa e : 8 $ : $ : @ - % > a N @.aXl.K.VXvX.Xl.J.' w.dXXXz.j.e.n.M.Z.G.H.(. X X+XyXpXlXvXlXvXhXaXpX5XF.v.H. X.X Xr 1X1X1X1X1X1X1X",
"1X1X1X1X1X1X1X1X> 5 $ $ 5 $ + $ @ > 0 y S G N.-XK.mXVXcXJ.7.Z c xXyXG.a.M.i.C.Z.a.H.J.J.J.+X5XgXxX&XzXxXgXzXpXP.7.s.P.I..X5X9X1X1X1X1X1X1X1X",
"1X1X1X1X1X1X1X1X0 : @ $ @ : $ : h > 0 k R { X.uX-X-XMXhXz.w.A c hXgXJ.N.M.i.M.M.M.G.G.J.G.(.+XyXpXpXcXpXBXxXuXF.7.s..X5XP.L.c.1X1X1X1X1X1X1X",
"1X1X1X1X1X1X1X1XX y : - @ @ @ % j > 7 w f b.$.G.:XhXtXvXtXaX7.A K.zXJ.j.t.i.C.M.M.V.G.N.F.(.XX&XrXiXlXlXBXvXpXF.K s.OXK A M.r 1X1X1X1X1X1X1X",
"1X1X1X1X1X1X1X1X. f > : + : : 8 e t w a m ~ X.a.&X,XaX:X-XhXMX9.x.pXJ.j.e.M.i.y.M.G.H.G.J. XXX X+X&XiXlXnXxXgXrX' 7.L.8.W X 1X1X1X1X1X1X1X1X",
"1X1X1X1X1X1X1X1X1X> q w @ + @ 8 @ e 0 0 R R X.h.N.XX'.-XcXVXAXVXxX;XG.k.t.j.y.f.M.V.H.J. X&X&X+X X X&XgXxXzXhXpX+XM.X.p   1X1X1X1X1X1X1X1X1X",
"1X1X1X1X1X1X1X1X1X1XI ^ j 6 % - @ 0 0 a p B 1.i.j.j.p.`.hXVXAXVXvX$Xk.k.0.y.y.a.a.V.J.(.XXyX&XXX(.J. X&XzXxXgXuXOXM.c., 1X1X1X1X1X1X1X1X1X1X",
"1X1X1X1X1X1X1X1X1X1X  2 d > > + % % y w d S -.j.h.N.r.q. XzXVXVXnXH.j.p.y.y.y.j.j.V.H.`.XX&X&X+XXXH.(.oXrXyXgX9XZ.n.H.}   1X1X1X1X1X1X1X1X1X",
"1X1X1X1X1X1X1X1X1X1X1X. R.l w 0 > % 0 2 w G  .t.V.N.a.0.q.G.;X%X..k.a.y.y.y.y.i.i.j.N.(.XX&XrXrX&XJ.G.(.`.oXyXe.M.5X.XX.  1X1X1X1X1X1X1X1X1X",
"1X1X1X1X1X1X1X1X1X1X1X1X1Xy l > 0 0 0 a a F d.B.V.N.j.N.G.{.H.8...j.j.p.y.0.y.j.j.V.G.(.XX&XrXrXrXG.N.G.J.(.%XH.v.9.D.n 1X1X1X1X1X1X1X1X1X1X",
"1X1X1X1X1X1X1X1X1X1X1X1X1X  . ) D > r F d G u.B.V.N.h.h.V./.(.r...y.j.p.y.r.y.j.y.V.(. X+X&X&XpXrX/.a.N.(.`.OXI.I.I.I.` 1X1X1X1X1X1X1X1X1X1X",
"1X1X1X1X1X1X1X1X1X1X1X1X1X1X1X. ) x w l F W d.Y.V.V.N.N.V.G./.a.7.0.p.j.j.y.y.a.j.N. X}.&XXX&XpXyX(.p.p.H. X X XJ.P.I.3X% 1X1X1X1X1X1X1X1X1X",
"1X1X1X1X1X1X1X1X1X1X1X1X1X1X1X1X% o.N f | -.U.)./.G.V.V.G.H.^.k.0.0.j.p.j.j.j.p.N.G.}.rX&XOX&X5XyX{.j.a.G.(. XrX&Xa.N.@.. 1X1X1X1X1X1X1X1X1X",
"1X1X1X1X1X1X1X1X1X1X1X1X1X1X1X1X1X^ ! ~ G { g.}./.~.V.N.k.G.^.H.y.0.p.y.y.y.y.0.N./.}.5X7X5XOX5XyX&XH.N.H.G.(.&X&X{.@.X 1X1X1X1X1X1X1X1X1X1X",
"1X1X1X1X1X1X1X1X1X1X1X1X1X1X1X1X1X> ^ / *.,.!.@X)./.V.V.V.G.G./.h.r.y.y.y.e.y.y.j.H.(.%X&X%X%XiXiX9X X{.{.(.{.XX&XrX4.1X1X1X1X1X1X1X1X1X1X1X",
"1X1X1X1X1X1X1X1X1X1X1X1X1X1X1X1X1X  f | H ,.Q.|.)./.k.V.V.G.G.G.k.r.0.y.y.y.y.y.j.h.{.}.%X%X7X7XOX5X$XOXOX X X&X+XiX6X1X1X1X1X1X1X1X1X1X1X1X",
"1X1X1X1X1X1X1X1X1X1X1X1X1X1X1X1X1X1XU T.1.T.m.%X|./.~.G.G.G.G.H.G.j.r.y.y.0.e.t.f.V./.M.}.}.}.%X/.5X%X%XV.{.9X5XOX9X5X  1X1X1X1X1X1X1X1X1X1X",
"1X1X1X1X1X1X1X1X1X1X1X1X1X1X1X1X1X1X. qXQ.b.U.#X).G.~.G.~.G.G.G.^.G.V.y.y.t.0.;.0.i.V././.j.[././.OX|.|./.Z.OX%XOX}.5X  1X1X1X1X1X1X1X1X1X1X",
"1X1X1X1X1X1X1X1X1X1X1X1X1X1X1X1X1X1X1XE.|.!.U.0X#X~.(.~./.~.~./.(./.G.k.j.t.t.t.t.y.h.j.h.M./.Z.Y.OXM.Z.Z.C.M.Z.M.n.E.  1X1X1X1X1X1X1X1X1X1X",
"1X1X1X1X1X1X1X1X1X1X1X1X1X1X1X1X1X1X1X4X6X@X|.%X#X_.(.~.~.~.(.(.].(._././.j.y.y.y.y.p.y.y.L y.f.j.M.e.n.n.B.Z.M.1.C.F 1X1X1X1X1X1X1X1X1X1X1X",
"1X1X1X1X1X1X1X1X1X1X1X1X1X1X1X1X1X1X1XeX6Xg.0X#X#X_.(.(.~.~.~.(.XXoX$XXX_./.N.j.p.y.y.y.e.j.e.[ n.f.X.;.;. .u.c.4./ . 1X1X1X1X1X1X1X1X1X1X1X",
"1X1X1X1X1X1X1X1X1X1X1X1X1X1X1X1X1X1X1XqXkX*X@X#X#X_._.(.^.~.(.].XX&X&X&X$XOX_.V.k.j.p.0...y.e.[ u.n.;.u.u.;.1.o.i X 1X1X1X1X1X1X1X1X1X1X1X1X",
"1X1X1X1X1X1X1X1X1X1X1X1X1X1X1X1X1X1X1X2XbX@X*XlX=X_._.(.(.(./._.XX$X;X;X>X&X X(.k.j.h.M.t.i.X.;.X.u.u.1.6.) *   1X1X1X1X1X1X1X1X1X1X1X1X1X1X",
"1X1X1X1X1X1X1X1X1X1X1X1X1X1X1X1X1X1X1XA.bX@X).=X#X$XXX(.^.~./.(.&X;X;XyX>XyX&XOX(.G.V.V.Z.j.-.l Q k +           1X1X1X1X1X1X1X1X1X1X1X1X1X1X",
"1X1X1X1X1X1X1X1X1X1X1X1X1X1X1X1X1X1X1XS 0X*X=X=X=X#X_.(.(.(.~.(.$X&X$XyXyXdXuX%X#XOX}.}.Z.V.G   1X1X1X1X1X1X1X1X1X1X1X1X1X1X1X1X1X1X1X1X1X1X",
"1X1X1X1X1X1X1X1X1X1X1X1X1X1X1X1X1X1X1X5.nXxX=X=X=X=X#X_.].(.(._.XX&XyXyXuXdXgXyXyX=X&X%X&X7X/   1X1X1X1X1X1X1X1X1X1X1X1X1X1X1X1X1X1X1X1X1X1X",
"1X1X1X1X1X1X1X1X1X1X1X1X1X1X1X1X1X1X1XR fX=X=X=X=X#X]._.(.(._.].XXoX>X>XdXuXdXdXgXrX7XrXyXfX  1X1X1X1X1X1X1X1X1X1X1X1X1X1X1X1X1X1X1X1X1X1X1X",
"1X1X1X1X1X1X1X1X1X1X1X1X1X1X1X1X1X1X  2.kXfX=X<X=X#X].(.(.(.].].$X$XyXyXdXgXdXxXgXyX&XyXyX    1X1X1X1X1X1X1X1X1X1X1X1X1X1X1X1X1X1X1X1X1X1X1X",
"1X1X1X1X1X1X1X1X1X1X1X1X1X1X1X  . . > ) &.0XfX=X#X#X].^.^.(. X].$X&X;XyXdXgXxXjXxXhXyXgXBX1X1X1X1X1X1X1X1X1X1X1X1X1X1X1X1X1X1X1X1X1X1X1X1X1X",
"1X1X1X1X1X1X1X1X1X1X1X1X. = ] ;.d.[ U.&.( ( ).=X$X#X_.^.^.(.XXXX&X$X&X>XdXjXgXxXnXgXuXgX  1X1X1X1X1X1X1X1X1X1X1X1X1X1X1X1X1X1X1X1X1X1X1X1X1X",
"1X1X1X1X1X1X1X1X1X1X1Xa !.d.:.d.1.$.%.z ( Y ) ] _.XX(.^.^.(.].$X#X$X;X>XyXgXgXxXnXcXjXxX  1X1X1X1X1X1X1X1X1X1X1X1X1X1X1X1X1X1X1X1X1X1X1X1X1X",
"1X1X1X1X1X1X1X1X1X  ~ g.B.U.H -.] m.5.) P x t e y p.^.^.].].XX$X&X&X=X=XyXgXgXxXnXcXxXyX2X1X1X1X1X1X1X1X1X1X1X1X1X1X1X1X1X1X1X1X1X1X1X1X1X1X",
"1X1X1X1X1X1X1X. g -.1.B.H -.:.$.]  .d.2.( P z 8 : - p j.(.XX$XXX$X>X=X=XyXdXgXhXnXxXxX7X: > eX1X1X1X1X1X1X1X1X1X1X1X1X1X1X1X1X1X1X1X1X1X1X1X",
"1X1X1X1X1X1X. 5.:.J J $.m.[ :.[ d.1.@X6XY 2.Y : 8 - - 0 F XXXXXXXX&X=X&X=XyXyXgXxXxXjX%X- -     1X1X1X1X1X1X1X1X1X1X1X1X1X1X1X1X1X1X1X1X1X1X"
};
