/* XPM */
static char *_b7f70ba0a2941e8a659309b740a836efebZ0Y9i3nw5ppCt[] = {
/* columns rows colors chars-per-pixel */
"70 70 2 1 ",
"  c #866C15",
". c #C4A63F",
/* pixels */
"                                                                      ",
"                                                                      ",
"  ..................................................................  ",
"  .                                                                .  ",
"  . .............................................................. .  ",
"  . .............................................................. .  ",
"  . .............................................................. .  ",
"  . .............................................................. .  ",
"  . .............................................................. .  ",
"  . .............................................................. .  ",
"  . .............................................................. .  ",
"  . .............................................................. .  ",
"  . .............................................................. .  ",
"  . .............................................................. .  ",
"  . .............................................................. .  ",
"  . .............................................................. .  ",
"  . .............................................................. .  ",
"  . .............................................................. .  ",
"  . .............................................................. .  ",
"  . .............................................................. .  ",
"  . .............................................................. .  ",
"  . .............................................................. .  ",
"  . .............................................................. .  ",
"  . .............................................................. .  ",
"  . .............................................................. .  ",
"  . .............................................................. .  ",
"  . .............................................................. .  ",
"  . .............................................................. .  ",
"  . .............................................................. .  ",
"  . .............................................................. .  ",
"  . .............................................................. .  ",
"  . .............................................................. .  ",
"  . .............................................................. .  ",
"  . .............................................................. .  ",
"  . .............................................................. .  ",
"  . .............................................................. .  ",
"  . .............................................................. .  ",
"  . .............................................................. .  ",
"  . .............................................................. .  ",
"  . .............................................................. .  ",
"  . .............................................................. .  ",
"  . .............................................................. .  ",
"  . .............................................................. .  ",
"  . .............................................................. .  ",
"  . .............................................................. .  ",
"  . .............................................................. .  ",
"  . .............................................................. .  ",
"  . .............................................................. .  ",
"  . .............................................................. .  ",
"  . .............................................................. .  ",
"  . .............................................................. .  ",
"  . .............................................................. .  ",
"  . .............................................................. .  ",
"  . .............................................................. .  ",
"  . .............................................................. .  ",
"  . .............................................................. .  ",
"  . .............................................................. .  ",
"  . .............................................................. .  ",
"  . .............................................................. .  ",
"  . .............................................................. .  ",
"  . .............................................................. .  ",
"  . .............................................................. .  ",
"  . .............................................................. .  ",
"  . .............................................................. .  ",
"  . .............................................................. .  ",
"  . .............................................................. .  ",
"  .                                                                .  ",
"  ..................................................................  ",
"                                                                      ",
"                                                                      "
};
